<svg id="svg" version="1.1" xmlns="http://www.w3.org/2000/svg" xmlns:xlink="http://www.w3.org/1999/xlink" width="400" height="530.718954248366" viewBox="0, 0, 400,530.718954248366"><g id="svgg"><path id="path0" d="M0.000 265.200 L 0.000 530.400 200.000 530.400 L 400.000 530.400 400.000 265.200 L 400.000 0.000 200.000 0.000 L 0.000 0.000 0.000 265.200 M396.000 265.200 L 396.000 526.400 200.000 526.400 L 4.000 526.400 4.000 265.200 L 4.000 4.000 200.000 4.000 L 396.000 4.000 396.000 265.200 M188.559 64.021 C 188.532 68.268,188.363 70.597,188.059 70.901 C 187.807 71.153,187.600 72.033,187.600 72.856 C 187.600 73.679,187.430 74.458,187.223 74.586 C 187.016 74.714,186.725 75.624,186.578 76.609 C 186.430 77.594,186.150 78.400,185.955 78.400 C 185.760 78.400,185.600 78.731,185.600 79.135 C 185.600 80.064,180.974 89.357,180.187 90.011 C 179.864 90.279,179.600 90.675,179.600 90.891 C 179.600 91.323,177.190 94.519,176.703 94.733 C 176.536 94.807,176.400 95.088,176.400 95.358 C 176.400 95.629,175.860 96.368,175.200 97.000 C 174.540 97.632,173.993 98.341,173.985 98.575 C 173.976 98.809,173.076 99.958,171.985 101.128 L 170.000 103.256 170.000 99.622 C 170.000 97.624,169.830 95.677,169.622 95.295 C 169.414 94.913,169.136 93.925,169.004 93.100 C 168.872 92.275,168.636 91.600,168.480 91.600 C 168.323 91.600,167.945 91.015,167.639 90.300 C 166.300 87.167,164.800 86.680,164.800 89.376 C 164.800 90.353,164.641 91.251,164.447 91.371 C 164.252 91.491,163.966 92.611,163.810 93.859 C 163.654 95.107,163.384 96.415,163.210 96.764 C 162.473 98.243,162.030 99.484,161.772 100.787 C 161.622 101.550,161.341 102.495,161.149 102.887 C 160.957 103.279,160.623 103.952,160.408 104.383 C 160.192 104.813,159.899 105.893,159.756 106.783 C 159.614 107.672,159.361 108.400,159.194 108.400 C 159.027 108.400,158.770 109.206,158.622 110.191 C 158.475 111.176,158.184 112.086,157.977 112.214 C 157.770 112.342,157.600 112.966,157.600 113.600 C 157.600 114.234,157.434 114.855,157.231 114.981 C 157.029 115.106,156.737 116.379,156.584 117.810 C 156.431 119.241,156.147 120.509,155.953 120.629 C 155.759 120.749,155.600 121.996,155.600 123.400 C 155.600 124.804,155.420 126.064,155.200 126.200 C 154.980 126.336,154.800 127.506,154.800 128.800 C 154.800 130.094,154.980 131.264,155.200 131.400 C 155.420 131.536,155.600 132.706,155.600 134.000 C 155.600 135.294,155.756 136.449,155.946 136.567 C 156.136 136.684,156.390 137.510,156.509 138.402 C 156.629 139.293,157.474 141.502,158.386 143.311 C 160.572 147.645,160.777 147.960,162.300 149.356 C 163.015 150.011,163.600 150.750,163.600 150.999 C 163.600 151.554,165.689 153.600,166.256 153.600 C 166.482 153.600,167.132 154.095,167.700 154.700 C 169.037 156.124,172.056 158.358,173.600 159.066 C 173.930 159.218,174.290 159.454,174.400 159.592 C 174.741 160.018,177.487 161.200,178.137 161.200 C 178.476 161.200,178.864 161.380,179.000 161.600 C 179.136 161.820,179.687 162.000,180.224 162.000 C 180.761 162.000,181.200 162.167,181.200 162.371 C 181.200 162.575,182.190 162.866,183.400 163.017 C 184.610 163.168,185.600 163.451,185.600 163.646 C 185.600 163.841,186.489 164.000,187.576 164.000 C 188.663 164.000,189.664 164.180,189.800 164.400 C 189.949 164.640,192.671 164.800,196.624 164.800 C 200.741 164.800,203.200 164.650,203.200 164.400 C 203.200 164.180,203.909 164.000,204.776 164.000 C 205.643 164.000,206.449 163.844,206.567 163.654 C 206.684 163.464,207.510 163.210,208.402 163.091 C 210.501 162.809,217.815 159.201,218.520 158.100 C 218.696 157.825,219.073 157.600,219.358 157.600 C 219.643 157.600,220.202 157.240,220.600 156.800 C 220.998 156.360,221.492 156.000,221.698 156.000 C 222.648 156.000,233.200 145.455,233.200 144.506 C 233.200 144.304,233.650 143.717,234.200 143.200 C 234.750 142.683,235.200 142.022,235.200 141.730 C 235.200 141.439,235.359 141.200,235.553 141.200 C 235.748 141.200,236.020 140.885,236.157 140.500 C 236.295 140.115,237.036 138.636,237.804 137.213 C 238.572 135.791,239.200 134.306,239.200 133.913 C 239.200 133.521,239.360 133.200,239.555 133.200 C 239.750 133.200,240.030 132.394,240.178 131.409 C 240.325 130.424,240.616 129.514,240.823 129.386 C 241.030 129.258,241.200 128.659,241.200 128.056 C 241.200 127.453,241.406 126.754,241.657 126.503 C 242.305 125.855,242.314 111.505,241.666 111.289 C 241.410 111.203,241.200 110.529,241.200 109.790 C 241.200 109.052,241.041 108.349,240.846 108.229 C 240.652 108.108,240.364 107.156,240.208 106.113 C 240.051 105.070,239.581 103.735,239.162 103.146 C 238.743 102.558,238.400 101.789,238.400 101.437 C 238.400 101.085,238.040 100.125,237.600 99.304 C 237.160 98.484,236.800 97.584,236.800 97.306 C 236.800 97.028,236.663 96.800,236.495 96.800 C 236.190 96.800,236.078 96.617,234.622 93.739 C 234.193 92.892,233.608 92.056,233.322 91.880 C 233.035 91.704,232.800 91.331,232.800 91.050 C 232.800 90.769,232.350 90.117,231.800 89.600 C 231.250 89.083,230.800 88.493,230.800 88.289 C 230.800 87.880,229.902 86.874,224.381 81.100 C 222.331 78.955,220.416 77.200,220.126 77.200 C 219.481 77.200,219.432 78.472,220.054 79.094 C 220.666 79.706,220.654 88.515,220.042 88.719 C 219.799 88.800,219.600 89.482,219.600 90.233 C 219.600 90.985,219.434 91.600,219.232 91.600 C 219.029 91.600,218.743 92.150,218.595 92.822 C 218.165 94.781,217.094 94.189,216.608 91.724 C 216.384 90.586,216.065 89.523,215.900 89.361 C 215.735 89.199,215.600 88.809,215.600 88.494 C 215.600 87.087,209.532 74.941,208.500 74.280 C 208.225 74.104,208.000 73.727,208.000 73.442 C 208.000 73.157,207.640 72.598,207.200 72.200 C 206.760 71.802,206.400 71.305,206.400 71.095 C 206.400 70.558,198.370 62.416,197.400 61.970 C 196.367 61.495,195.055 60.672,194.800 60.339 C 194.429 59.855,189.827 57.600,189.211 57.600 C 188.690 57.600,188.594 58.546,188.559 64.021 M223.413 112.015 C 224.140 112.817,224.108 112.873,221.275 115.724 C 219.694 117.316,218.400 118.840,218.400 119.109 C 218.400 119.379,218.220 119.600,218.000 119.600 C 217.780 119.600,217.600 120.244,217.600 121.031 C 217.600 123.182,219.370 124.800,221.723 124.800 C 225.539 124.800,225.061 125.522,213.695 136.900 L 203.406 147.200 190.526 147.200 C 182.372 147.200,177.557 147.053,177.400 146.800 C 177.264 146.580,176.713 146.400,176.176 146.400 C 175.639 146.400,175.200 146.220,175.200 146.000 C 175.200 145.780,174.964 145.600,174.675 145.600 C 174.029 145.600,172.000 143.535,172.000 142.878 C 172.000 142.615,171.865 142.399,171.700 142.397 C 171.164 142.391,170.400 140.277,170.400 138.800 C 170.400 137.323,171.164 135.209,171.700 135.203 C 171.865 135.201,172.000 134.976,172.000 134.703 C 172.000 134.049,193.644 112.400,194.297 112.400 C 194.574 112.400,194.800 112.230,194.800 112.023 C 194.800 110.888,222.386 110.880,223.413 112.015 M194.800 115.025 C 193.144 115.919,179.471 129.867,179.772 130.355 C 179.964 130.665,183.521 130.800,191.471 130.800 L 202.894 130.800 210.847 122.822 C 215.221 118.434,218.800 114.744,218.800 114.622 C 218.800 114.096,195.805 114.482,194.800 115.025 M209.000 128.000 L 203.812 133.200 190.506 133.200 C 183.188 133.200,177.200 133.346,177.200 133.525 C 177.200 133.704,176.566 134.100,175.790 134.404 C 173.788 135.189,171.810 141.200,173.553 141.200 C 173.748 141.200,173.994 141.532,174.100 141.938 C 174.656 144.067,176.867 144.400,190.423 144.400 L 202.993 144.400 211.290 136.110 L 219.587 127.820 217.593 125.919 C 216.497 124.874,215.600 123.744,215.600 123.409 C 215.600 121.926,213.837 123.153,209.000 128.000 M35.667 355.578 C 35.740 355.786,37.195 357.383,38.900 359.127 L 42.000 362.299 42.032 381.850 C 42.049 392.602,42.154 401.175,42.265 400.900 C 42.419 400.518,44.976 400.400,53.144 400.400 L 63.821 400.400 66.600 403.200 C 70.187 406.815,70.000 407.014,70.000 399.600 L 70.000 393.200 59.600 393.200 L 49.200 393.200 49.200 381.583 L 49.200 369.966 47.487 368.083 C 45.320 365.701,42.927 362.699,42.855 362.273 C 42.825 362.094,47.255 361.964,52.700 361.985 L 62.600 362.024 65.409 364.812 C 69.282 368.655,69.200 368.729,69.200 361.400 L 69.200 355.200 52.367 355.200 C 41.974 355.200,35.584 355.345,35.667 355.578 M77.015 356.096 C 77.165 356.593,77.917 357.658,78.688 358.462 C 80.105 359.941,80.979 361.223,81.440 362.500 C 81.722 363.279,82.224 363.409,82.600 362.800 C 83.024 362.113,92.933 362.278,92.668 362.967 C 92.548 363.279,92.713 363.634,93.033 363.757 C 93.534 363.950,93.601 366.577,93.508 382.446 L 93.400 400.912 96.328 403.756 C 97.938 405.320,99.423 406.660,99.628 406.733 C 99.854 406.814,100.000 399.525,100.000 388.142 L 100.000 369.418 96.951 366.350 C 93.088 362.465,93.139 362.398,99.924 362.409 L 105.400 362.419 107.300 364.231 C 108.345 365.228,109.200 366.208,109.200 366.408 C 109.200 367.153,111.602 369.260,111.816 368.703 C 111.929 368.409,111.971 365.295,111.911 361.784 L 111.800 355.400 94.272 355.296 L 76.743 355.192 77.015 356.096 M118.400 355.596 C 118.400 355.818,118.633 356.000,118.917 356.000 C 119.521 356.000,122.800 359.240,122.800 359.837 C 122.800 360.060,123.430 360.854,124.200 361.600 L 125.600 362.957 125.600 381.678 L 125.600 400.400 137.187 400.400 L 148.774 400.400 151.849 403.600 C 153.540 405.360,155.076 406.800,155.262 406.800 C 155.448 406.800,155.600 402.750,155.600 397.800 C 155.600 392.067,155.455 388.800,155.200 388.800 C 154.980 388.800,154.800 388.492,154.800 388.116 C 154.800 387.740,153.585 386.275,152.100 384.861 L 149.400 382.290 149.292 390.833 C 149.159 401.281,149.306 401.086,144.886 396.686 L 141.384 393.200 137.092 393.200 L 132.800 393.200 132.798 390.900 L 132.796 388.600 129.812 385.552 C 128.172 383.876,126.942 382.391,127.081 382.252 C 127.220 382.113,132.163 382.000,138.067 382.000 C 146.539 382.000,148.800 381.892,148.800 381.486 C 148.800 380.888,144.766 376.800,144.176 376.800 C 143.055 376.800,142.399 375.125,142.331 372.095 L 142.262 369.000 142.031 371.600 L 141.800 374.200 137.300 374.313 L 132.800 374.426 132.800 371.922 L 132.800 369.418 129.700 366.295 L 126.600 363.173 137.900 363.220 L 149.200 363.268 149.200 372.124 L 149.200 380.981 152.407 377.793 L 155.614 374.605 155.507 365.003 L 155.400 355.400 136.900 355.296 C 124.643 355.227,118.400 355.328,118.400 355.596 M202.000 355.545 C 202.000 355.739,203.080 356.905,204.400 358.136 C 205.720 359.366,206.800 360.552,206.800 360.771 C 206.800 360.990,207.165 361.509,207.611 361.925 C 208.408 362.667,208.421 363.033,208.311 381.940 C 208.201 401.095,208.204 401.200,209.016 401.200 C 209.503 401.200,210.953 402.358,212.616 404.075 L 215.400 406.950 215.508 397.592 L 215.615 388.234 212.808 385.408 C 211.263 383.853,210.000 382.450,210.000 382.291 C 210.000 382.131,214.995 382.003,221.100 382.007 L 232.200 382.014 235.100 384.799 C 236.695 386.330,238.000 387.893,238.000 388.272 C 238.000 388.736,238.132 388.828,238.405 388.555 C 238.668 388.292,238.773 382.422,238.705 371.775 L 238.600 355.400 220.300 355.296 C 209.911 355.237,202.000 355.345,202.000 355.545 M246.665 355.468 C 246.514 355.620,247.337 356.691,248.495 357.849 C 249.653 359.006,251.095 360.574,251.700 361.332 L 252.800 362.710 252.800 381.322 C 252.800 399.817,252.866 401.200,253.744 401.200 C 253.996 401.200,255.641 402.663,257.401 404.452 L 260.600 407.703 260.707 397.967 L 260.815 388.231 257.807 385.394 C 253.561 381.389,253.148 381.600,265.226 381.600 C 278.674 381.600,277.236 380.395,277.185 391.619 L 277.144 400.795 279.630 403.198 C 280.997 404.519,282.356 405.600,282.650 405.600 C 282.944 405.600,283.298 406.050,283.436 406.600 C 284.245 409.824,284.397 405.419,284.303 381.500 L 284.200 355.400 265.571 355.296 C 255.324 355.239,246.817 355.316,246.665 355.468 M291.000 355.600 C 290.864 355.820,291.010 356.000,291.325 356.000 C 291.640 356.000,292.647 356.855,293.563 357.900 C 294.479 358.945,295.852 360.462,296.614 361.271 L 298.000 362.741 298.000 372.371 L 298.000 382.000 307.320 382.000 C 314.036 382.000,316.774 382.134,317.120 382.480 C 317.493 382.853,317.600 382.853,317.600 382.480 C 317.600 382.216,317.780 382.000,318.000 382.000 C 318.434 382.000,318.587 399.280,318.157 399.710 C 317.871 399.995,313.622 395.497,313.002 394.253 C 312.585 393.416,312.366 393.398,301.588 393.320 C 292.906 393.256,290.760 393.340,291.362 393.720 C 292.598 394.498,295.600 397.429,295.600 397.857 C 295.600 398.073,296.123 398.752,296.763 399.364 L 297.925 400.478 307.977 400.421 L 318.029 400.363 321.157 403.508 C 322.877 405.237,324.386 406.910,324.510 407.226 C 324.635 407.542,324.751 400.285,324.768 391.100 L 324.800 374.400 315.000 374.400 L 305.200 374.400 305.200 371.909 L 305.200 369.418 302.109 366.309 L 299.019 363.200 308.618 363.200 L 318.218 363.200 319.600 364.800 C 320.360 365.680,321.211 366.400,321.491 366.400 C 322.059 366.400,323.105 367.359,324.124 368.813 C 324.769 369.734,324.800 369.445,324.800 362.489 L 324.800 355.200 308.024 355.200 C 297.271 355.200,291.158 355.344,291.000 355.600 M333.600 355.579 C 333.600 355.793,334.320 356.634,335.200 357.448 C 336.080 358.262,336.800 359.133,336.800 359.383 C 336.800 359.633,337.520 360.541,338.400 361.400 L 340.000 362.962 340.000 372.481 L 340.000 382.000 349.992 382.000 L 359.985 382.000 360.206 382.900 C 360.810 385.359,360.211 399.787,359.500 399.924 C 359.064 400.008,358.800 399.812,358.800 399.405 C 358.800 399.045,357.541 397.502,356.003 395.975 L 353.205 393.200 343.003 393.200 C 336.468 393.200,332.800 393.344,332.800 393.600 C 332.800 393.820,333.056 394.000,333.370 394.000 C 333.683 394.000,334.358 394.554,334.870 395.231 C 335.381 395.907,336.590 397.347,337.555 398.431 L 339.309 400.400 349.564 400.400 L 359.819 400.400 362.909 403.509 C 364.609 405.219,366.000 406.839,366.000 407.109 C 366.000 407.379,366.180 407.600,366.400 407.600 C 366.660 407.600,366.800 401.800,366.800 391.000 L 366.800 374.400 357.000 374.400 L 347.200 374.400 347.200 371.868 L 347.200 369.335 344.200 366.426 C 342.550 364.826,341.200 363.446,341.200 363.359 C 341.200 363.271,345.379 363.200,350.486 363.200 L 359.773 363.200 361.641 365.041 C 362.669 366.053,363.935 367.091,364.455 367.348 C 364.975 367.604,365.578 368.216,365.795 368.707 C 366.632 370.600,366.815 369.358,366.709 362.500 L 366.600 355.400 350.100 355.296 C 339.626 355.229,333.600 355.333,333.600 355.579 M232.000 372.072 L 232.000 381.745 228.429 378.250 L 224.858 374.756 220.329 374.829 L 215.800 374.903 215.684 372.151 L 215.567 369.400 212.371 366.179 C 210.613 364.408,209.301 362.833,209.454 362.679 C 209.608 362.526,214.743 362.400,220.867 362.400 L 232.000 362.400 232.000 372.072 M277.200 371.576 C 277.200 381.222,277.154 381.334,274.367 378.443 C 273.284 377.319,272.171 376.400,271.894 376.400 C 271.617 376.400,271.052 375.950,270.639 375.400 C 269.908 374.427,269.753 374.400,264.908 374.400 L 259.928 374.400 260.057 371.604 L 260.187 368.808 257.404 366.004 L 254.621 363.200 265.911 363.200 L 277.200 363.200 277.200 371.576 " stroke="none" fill="#23d2ec" fill-rule="evenodd"></path><path id="path1" d="M4.000 265.200 L 4.000 526.400 200.000 526.400 L 396.000 526.400 396.000 265.200 L 396.000 4.000 200.000 4.000 L 4.000 4.000 4.000 265.200 M192.211 58.839 C 193.525 59.521,194.690 60.196,194.800 60.339 C 195.055 60.672,196.367 61.495,197.400 61.970 C 198.370 62.416,206.400 70.558,206.400 71.095 C 206.400 71.305,206.760 71.802,207.200 72.200 C 207.640 72.598,208.000 73.157,208.000 73.442 C 208.000 73.727,208.225 74.104,208.500 74.280 C 209.532 74.941,215.600 87.087,215.600 88.494 C 215.600 88.809,215.735 89.199,215.900 89.361 C 216.065 89.523,216.384 90.586,216.608 91.724 C 217.094 94.189,218.165 94.781,218.595 92.822 C 218.743 92.150,219.029 91.600,219.232 91.600 C 219.434 91.600,219.600 90.985,219.600 90.233 C 219.600 89.482,219.799 88.800,220.042 88.719 C 220.654 88.515,220.666 79.706,220.054 79.094 C 219.432 78.472,219.481 77.200,220.126 77.200 C 220.416 77.200,222.331 78.955,224.381 81.100 C 229.902 86.874,230.800 87.880,230.800 88.289 C 230.800 88.493,231.250 89.083,231.800 89.600 C 232.350 90.117,232.800 90.769,232.800 91.050 C 232.800 91.331,233.035 91.704,233.322 91.880 C 233.608 92.056,234.193 92.892,234.622 93.739 C 236.078 96.617,236.190 96.800,236.495 96.800 C 236.663 96.800,236.800 97.028,236.800 97.306 C 236.800 97.584,237.160 98.484,237.600 99.304 C 238.040 100.125,238.400 101.085,238.400 101.437 C 238.400 101.789,238.743 102.558,239.162 103.146 C 239.581 103.735,240.051 105.070,240.208 106.113 C 240.364 107.156,240.652 108.108,240.846 108.229 C 241.041 108.349,241.200 109.052,241.200 109.790 C 241.200 110.529,241.410 111.203,241.666 111.289 C 242.314 111.505,242.305 125.855,241.657 126.503 C 241.406 126.754,241.200 127.453,241.200 128.056 C 241.200 128.659,241.030 129.258,240.823 129.386 C 240.616 129.514,240.325 130.424,240.178 131.409 C 240.030 132.394,239.750 133.200,239.555 133.200 C 239.360 133.200,239.200 133.521,239.200 133.913 C 239.200 134.306,238.572 135.791,237.804 137.213 C 237.036 138.636,236.295 140.115,236.157 140.500 C 236.020 140.885,235.748 141.200,235.553 141.200 C 235.359 141.200,235.200 141.439,235.200 141.730 C 235.200 142.022,234.750 142.683,234.200 143.200 C 233.650 143.717,233.200 144.304,233.200 144.506 C 233.200 145.455,222.648 156.000,221.698 156.000 C 221.492 156.000,220.998 156.360,220.600 156.800 C 220.202 157.240,219.643 157.600,219.358 157.600 C 219.073 157.600,218.696 157.825,218.520 158.100 C 217.815 159.201,210.501 162.809,208.402 163.091 C 207.510 163.210,206.684 163.464,206.567 163.654 C 206.449 163.844,205.643 164.000,204.776 164.000 C 203.909 164.000,203.200 164.180,203.200 164.400 C 203.200 164.650,200.741 164.800,196.624 164.800 C 192.671 164.800,189.949 164.640,189.800 164.400 C 189.664 164.180,188.663 164.000,187.576 164.000 C 186.489 164.000,185.600 163.841,185.600 163.646 C 185.600 163.451,184.610 163.168,183.400 163.017 C 182.190 162.866,181.200 162.575,181.200 162.371 C 181.200 162.167,180.761 162.000,180.224 162.000 C 179.687 162.000,179.136 161.820,179.000 161.600 C 178.864 161.380,178.476 161.200,178.137 161.200 C 177.487 161.200,174.741 160.018,174.400 159.592 C 174.290 159.454,173.930 159.218,173.600 159.066 C 172.056 158.358,169.037 156.124,167.700 154.700 C 167.132 154.095,166.482 153.600,166.256 153.600 C 165.689 153.600,163.600 151.554,163.600 150.999 C 163.600 150.750,163.015 150.011,162.300 149.356 C 160.777 147.960,160.572 147.645,158.386 143.311 C 157.474 141.502,156.629 139.293,156.509 138.402 C 156.390 137.510,156.136 136.684,155.946 136.567 C 155.756 136.449,155.600 135.294,155.600 134.000 C 155.600 132.706,155.420 131.536,155.200 131.400 C 154.980 131.264,154.800 130.094,154.800 128.800 C 154.800 127.506,154.980 126.336,155.200 126.200 C 155.420 126.064,155.600 124.804,155.600 123.400 C 155.600 121.996,155.759 120.749,155.953 120.629 C 156.147 120.509,156.431 119.241,156.584 117.810 C 156.737 116.379,157.029 115.106,157.231 114.981 C 157.434 114.855,157.600 114.234,157.600 113.600 C 157.600 112.966,157.770 112.342,157.977 112.214 C 158.184 112.086,158.475 111.176,158.622 110.191 C 158.770 109.206,159.027 108.400,159.194 108.400 C 159.361 108.400,159.614 107.672,159.756 106.783 C 159.899 105.893,160.192 104.813,160.408 104.383 C 160.623 103.952,160.957 103.279,161.149 102.887 C 161.341 102.495,161.622 101.550,161.772 100.787 C 162.030 99.484,162.473 98.243,163.210 96.764 C 163.384 96.415,163.654 95.107,163.810 93.859 C 163.966 92.611,164.252 91.491,164.447 91.371 C 164.641 91.251,164.800 90.353,164.800 89.376 C 164.800 86.680,166.300 87.167,167.639 90.300 C 167.945 91.015,168.323 91.600,168.480 91.600 C 168.636 91.600,168.872 92.275,169.004 93.100 C 169.136 93.925,169.414 94.913,169.622 95.295 C 169.830 95.677,170.000 97.624,170.000 99.622 L 170.000 103.256 171.985 101.128 C 173.076 99.958,173.976 98.809,173.985 98.575 C 173.993 98.341,174.540 97.632,175.200 97.000 C 175.860 96.368,176.400 95.629,176.400 95.358 C 176.400 95.088,176.536 94.807,176.703 94.733 C 177.190 94.519,179.600 91.323,179.600 90.891 C 179.600 90.675,179.864 90.279,180.187 90.011 C 180.974 89.357,185.600 80.064,185.600 79.135 C 185.600 78.731,185.760 78.400,185.955 78.400 C 186.150 78.400,186.430 77.594,186.578 76.609 C 186.725 75.624,187.016 74.714,187.223 74.586 C 187.430 74.458,187.600 73.679,187.600 72.856 C 187.600 72.033,187.807 71.153,188.059 70.901 C 188.363 70.597,188.532 68.268,188.559 64.021 C 188.606 56.643,188.438 56.882,192.211 58.839 M196.500 111.493 C 195.565 111.577,194.800 111.816,194.800 112.023 C 194.800 112.230,194.574 112.400,194.297 112.400 C 193.644 112.400,172.000 134.049,172.000 134.703 C 172.000 134.976,171.865 135.201,171.700 135.203 C 171.164 135.209,170.400 137.323,170.400 138.800 C 170.400 140.277,171.164 142.391,171.700 142.397 C 171.865 142.399,172.000 142.615,172.000 142.878 C 172.000 143.535,174.029 145.600,174.675 145.600 C 174.964 145.600,175.200 145.780,175.200 146.000 C 175.200 146.220,175.639 146.400,176.176 146.400 C 176.713 146.400,177.264 146.580,177.400 146.800 C 177.557 147.053,182.372 147.200,190.526 147.200 L 203.406 147.200 213.695 136.900 C 225.061 125.522,225.539 124.800,221.723 124.800 C 219.370 124.800,217.600 123.182,217.600 121.031 C 217.600 120.244,217.780 119.600,218.000 119.600 C 218.220 119.600,218.400 119.379,218.400 119.109 C 218.400 118.840,219.694 117.316,221.275 115.724 C 225.803 111.166,225.843 111.182,210.438 111.270 C 203.707 111.308,197.435 111.409,196.500 111.493 M218.800 114.622 C 218.800 114.744,215.221 118.434,210.847 122.822 L 202.894 130.800 191.471 130.800 C 183.521 130.800,179.964 130.665,179.772 130.355 C 179.471 129.867,193.144 115.919,194.800 115.025 C 195.805 114.482,218.800 114.096,218.800 114.622 M215.600 123.409 C 215.600 123.744,216.497 124.874,217.593 125.919 L 219.587 127.820 211.290 136.110 L 202.993 144.400 190.423 144.400 C 176.867 144.400,174.656 144.067,174.100 141.938 C 173.994 141.532,173.748 141.200,173.553 141.200 C 171.810 141.200,173.788 135.189,175.790 134.404 C 176.566 134.100,177.200 133.704,177.200 133.525 C 177.200 133.346,183.188 133.200,190.506 133.200 L 203.812 133.200 209.000 128.000 C 213.837 123.153,215.600 121.926,215.600 123.409 M70.000 362.393 L 70.000 369.586 59.900 369.693 L 49.800 369.800 49.800 381.400 L 49.800 393.000 60.309 393.107 L 70.818 393.213 70.709 400.707 L 70.600 408.200 52.300 408.304 L 34.000 408.408 34.000 381.804 L 34.000 355.200 52.000 355.200 L 70.000 355.200 70.000 362.393 M111.767 355.443 C 112.418 355.692,112.758 368.201,112.157 369.767 C 111.952 370.302,111.056 370.400,106.361 370.400 L 100.808 370.400 100.704 389.300 L 100.600 408.200 93.400 408.200 L 86.200 408.200 86.000 389.400 L 85.800 370.600 80.500 370.488 L 75.200 370.377 75.200 362.788 L 75.200 355.200 93.167 355.200 C 103.049 355.200,111.419 355.309,111.767 355.443 M156.400 364.741 L 156.400 374.282 153.166 377.739 C 151.387 379.640,149.992 381.359,150.066 381.559 C 150.218 381.972,153.639 385.980,155.307 387.700 L 156.414 388.842 156.307 398.521 L 156.200 408.200 137.446 408.304 C 123.931 408.379,118.539 408.281,118.146 407.955 C 117.563 407.472,117.290 356.043,117.867 355.467 C 118.013 355.320,126.743 355.200,137.267 355.200 L 156.400 355.200 156.400 364.741 M238.567 355.443 C 239.258 355.708,239.553 387.625,238.874 388.693 C 238.641 389.061,235.753 389.214,227.580 389.293 L 216.600 389.400 216.400 398.800 L 216.200 408.200 208.829 408.309 C 203.200 408.393,201.382 408.298,201.135 407.909 C 200.749 407.301,200.682 355.851,201.067 355.467 C 201.400 355.133,237.701 355.110,238.567 355.443 M285.103 381.355 C 285.179 400.432,285.084 407.458,284.747 407.864 C 284.380 408.306,282.793 408.395,276.844 408.309 L 269.400 408.200 269.293 398.500 L 269.186 388.800 264.993 388.800 L 260.800 388.800 260.800 398.600 L 260.800 408.400 253.243 408.400 C 246.721 408.400,245.652 408.313,245.443 407.767 C 245.108 406.894,245.135 355.799,245.470 355.463 C 245.619 355.314,254.574 355.239,265.370 355.296 L 285.000 355.400 285.103 381.355 M325.514 362.000 C 325.577 365.630,325.529 369.005,325.407 369.500 L 325.185 370.400 315.592 370.400 L 306.000 370.400 306.000 372.400 L 306.000 374.400 315.800 374.400 L 325.600 374.400 325.600 390.920 C 325.600 403.236,325.478 407.562,325.120 407.920 C 324.762 408.278,320.348 408.400,307.728 408.400 L 290.815 408.400 290.593 407.500 C 290.471 407.005,290.423 403.630,290.486 400.000 L 290.600 393.400 300.900 393.293 L 311.200 393.186 311.200 391.393 L 311.200 389.600 301.000 389.600 L 290.800 389.600 290.800 372.667 C 290.800 363.353,290.922 355.611,291.071 355.462 C 291.220 355.313,299.005 355.238,308.371 355.296 L 325.400 355.400 325.514 362.000 M366.709 362.900 L 366.818 370.400 357.409 370.400 L 348.000 370.400 348.000 372.400 L 348.000 374.400 357.404 374.400 L 366.809 374.400 366.704 391.300 L 366.600 408.200 349.846 408.304 C 337.811 408.379,332.939 408.281,332.546 407.955 C 332.122 407.603,332.000 405.907,332.000 400.351 L 332.000 393.200 342.400 393.200 L 352.800 393.200 352.800 391.400 L 352.800 389.600 342.814 389.600 C 333.351 389.600,332.806 389.560,332.414 388.826 C 331.951 387.961,331.813 355.920,332.271 355.462 C 332.420 355.313,340.205 355.238,349.571 355.296 L 366.600 355.400 366.709 362.900 M34.800 381.400 L 34.800 406.539 35.700 405.719 C 36.195 405.269,37.562 404.022,38.739 402.950 C 39.915 401.877,41.130 400.856,41.439 400.680 C 41.908 400.413,42.000 397.302,42.000 381.725 L 42.000 363.090 39.406 360.620 C 37.979 359.262,36.359 357.725,35.806 357.205 L 34.800 356.261 34.800 381.400 M76.000 362.400 C 76.000 368.475,76.117 368.731,77.961 366.700 C 81.811 362.458,81.733 362.760,79.583 360.386 C 78.693 359.403,77.683 358.195,77.337 357.700 C 76.194 356.064,76.000 356.745,76.000 362.400 M119.200 381.446 L 119.200 406.063 121.985 403.132 L 124.770 400.200 124.776 381.400 L 124.782 362.600 121.991 359.714 L 119.200 356.828 119.200 381.446 M202.000 381.167 C 202.000 394.605,202.140 405.600,202.310 405.600 C 202.481 405.600,203.921 404.291,205.510 402.691 L 208.400 399.781 208.400 381.554 L 208.400 363.328 205.529 360.164 C 203.950 358.424,202.510 356.940,202.329 356.867 C 202.148 356.793,202.000 367.728,202.000 381.167 M246.400 381.167 C 246.400 394.605,246.536 405.600,246.701 405.600 C 246.867 405.600,248.307 404.346,249.901 402.814 L 252.800 400.028 252.800 381.713 L 252.800 363.398 249.935 360.199 C 248.359 358.439,246.919 356.940,246.735 356.867 C 246.551 356.793,246.400 367.728,246.400 381.167 M291.606 372.113 L 291.613 387.400 294.606 384.350 L 297.600 381.301 297.599 372.550 C 297.597 362.775,297.707 363.226,294.436 359.600 C 293.543 358.610,292.810 357.684,292.806 357.543 C 292.803 357.401,292.530 357.182,292.200 357.055 C 291.673 356.853,291.601 358.686,291.606 372.113 M333.600 371.774 C 333.600 384.947,333.675 386.836,334.181 386.416 C 334.500 386.151,335.760 384.959,336.981 383.767 L 339.200 381.601 339.200 372.355 L 339.200 363.109 337.100 360.656 C 335.945 359.308,334.685 357.854,334.300 357.427 C 333.632 356.685,333.600 357.340,333.600 371.774 M46.200 365.600 L 48.979 368.400 58.789 368.383 L 68.600 368.366 65.604 365.583 L 62.609 362.800 53.015 362.800 L 43.421 362.800 46.200 365.600 M80.368 365.657 C 77.040 369.429,76.940 369.200,81.914 369.200 L 86.269 369.200 88.934 366.439 C 92.280 362.973,92.411 363.200,87.068 363.200 L 82.537 363.200 80.368 365.657 M95.421 363.700 C 95.529 363.975,96.758 365.325,98.154 366.700 L 100.690 369.200 105.321 369.200 C 110.947 369.200,110.945 369.203,107.922 365.876 L 105.491 363.200 100.358 363.200 C 96.414 363.200,95.270 363.316,95.421 363.700 M127.600 363.496 C 127.600 363.659,128.725 364.874,130.100 366.196 L 132.600 368.600 137.075 368.734 L 141.549 368.868 144.130 366.534 C 148.059 362.981,148.502 363.200,137.387 363.200 C 132.004 363.200,127.600 363.333,127.600 363.496 M210.400 363.503 C 210.400 363.670,211.654 365.020,213.187 366.503 L 215.975 369.200 220.014 369.200 C 224.593 369.200,224.975 369.060,227.308 366.529 C 230.676 362.876,231.366 363.200,220.223 363.200 C 214.820 363.200,210.400 363.337,210.400 363.503 M258.000 365.800 L 260.577 368.400 265.188 368.391 L 269.800 368.383 272.600 365.805 L 275.400 363.227 265.412 363.214 L 255.423 363.200 258.000 365.800 M300.400 363.435 C 300.400 363.564,301.509 364.824,302.863 366.235 L 305.327 368.800 314.363 368.785 L 323.400 368.770 321.418 367.085 C 320.328 366.158,318.919 364.905,318.287 364.300 L 317.138 363.200 308.769 363.200 C 304.166 363.200,300.400 363.306,300.400 363.435 M342.638 364.089 C 343.057 364.579,344.195 365.839,345.166 366.889 L 346.933 368.800 355.966 368.789 L 365.000 368.778 363.400 367.326 C 362.520 366.528,361.133 365.273,360.317 364.537 L 358.835 363.200 350.355 363.200 L 341.876 363.200 342.638 364.089 M230.400 364.744 C 230.070 365.117,228.855 366.488,227.700 367.791 C 224.420 371.490,224.572 373.540,228.410 377.400 L 231.193 380.200 231.197 372.100 C 231.198 367.645,231.155 364.015,231.100 364.033 C 231.045 364.052,230.730 364.372,230.400 364.744 M89.855 367.230 L 87.200 370.060 87.202 388.130 L 87.204 406.200 90.000 403.200 L 92.796 400.200 92.798 382.300 C 92.799 372.455,92.735 364.400,92.655 364.400 C 92.575 364.400,91.315 365.673,89.855 367.230 M275.137 365.300 C 274.552 365.795,273.247 366.884,272.237 367.720 C 270.418 369.225,270.400 369.263,270.400 371.705 L 270.400 374.169 272.700 376.318 C 276.657 380.015,276.400 380.328,276.400 371.814 C 276.400 367.736,276.355 364.400,276.300 364.400 C 276.245 364.401,275.721 364.806,275.137 365.300 M145.393 366.985 C 144.077 368.186,142.865 369.176,142.700 369.185 C 142.535 369.193,142.400 370.355,142.400 371.767 L 142.400 374.334 145.032 376.867 C 146.479 378.260,147.829 379.460,148.032 379.533 C 148.248 379.612,148.400 376.595,148.400 372.233 C 148.400 368.145,148.262 364.800,148.093 364.800 C 147.924 364.800,146.709 365.783,145.393 366.985 M260.966 370.143 C 260.846 370.458,260.804 371.410,260.873 372.258 L 261.000 373.800 265.000 373.800 L 269.000 373.800 269.000 371.800 L 269.000 369.800 265.093 369.685 C 261.995 369.595,261.141 369.689,260.966 370.143 M133.278 371.900 L 133.400 373.800 136.599 373.919 C 141.283 374.092,141.600 373.957,141.600 371.792 L 141.600 370.000 137.378 370.000 L 133.156 370.000 133.278 371.900 M216.478 372.300 L 216.600 374.200 220.400 374.200 L 224.200 374.200 224.322 372.300 L 224.444 370.400 220.400 370.400 L 216.356 370.400 216.478 372.300 M127.499 382.234 C 127.371 382.362,128.376 383.527,129.733 384.823 L 132.200 387.177 136.867 387.189 L 141.534 387.200 144.167 384.924 C 145.615 383.672,146.800 382.502,146.800 382.324 C 146.800 381.959,127.863 381.870,127.499 382.234 M210.800 382.311 C 210.800 382.482,212.023 383.835,213.517 385.318 L 216.234 388.014 226.567 387.907 L 236.900 387.800 234.123 384.900 L 231.347 382.000 221.073 382.000 C 215.423 382.000,210.800 382.140,210.800 382.311 M296.027 384.747 C 292.283 388.665,291.824 388.400,302.347 388.400 L 311.560 388.400 313.080 386.563 C 313.916 385.553,315.005 384.248,315.500 383.663 C 315.994 383.079,316.399 382.465,316.400 382.300 C 316.400 382.135,312.395 382.012,307.500 382.027 L 298.600 382.054 296.027 384.747 M337.500 384.977 C 336.015 386.560,334.800 387.978,334.800 388.127 C 334.800 388.277,338.912 388.400,343.939 388.400 C 354.168 388.400,353.385 388.608,356.008 385.200 C 356.770 384.210,357.530 383.340,357.697 383.267 C 357.864 383.193,358.000 382.878,358.000 382.567 C 358.000 382.093,356.535 382.008,349.100 382.050 L 340.200 382.099 337.500 384.977 M257.419 384.086 C 260.963 387.865,260.381 387.600,265.121 387.599 L 269.400 387.597 272.200 385.015 L 275.000 382.433 265.419 382.416 L 255.838 382.400 257.419 384.086 M146.600 384.266 C 141.984 388.269,142.400 387.650,142.400 390.519 L 142.400 393.128 145.247 395.964 C 146.813 397.524,148.163 398.800,148.247 398.800 C 148.331 398.800,148.400 395.290,148.400 391.000 C 148.400 386.710,148.265 383.206,148.100 383.213 C 147.935 383.220,147.260 383.694,146.600 384.266 M273.300 385.817 L 270.400 388.511 270.400 397.056 C 270.400 401.755,270.535 405.596,270.700 405.592 C 270.865 405.587,272.219 404.422,273.708 403.002 L 276.416 400.421 276.308 391.772 L 276.200 383.123 273.300 385.817 M315.800 385.275 C 314.920 386.398,314.003 387.520,313.763 387.767 C 311.634 389.958,311.928 392.650,314.618 395.577 C 315.337 396.360,316.296 397.450,316.750 398.000 L 317.573 399.000 317.587 391.100 C 317.594 386.755,317.555 383.207,317.500 383.216 C 317.445 383.225,316.680 384.151,315.800 385.275 M356.700 386.309 C 354.580 388.935,354.400 389.315,354.400 391.177 C 354.400 393.050,354.567 393.398,356.700 395.953 L 359.000 398.708 359.114 394.954 C 359.177 392.889,359.177 389.458,359.114 387.330 L 359.000 383.460 356.700 386.309 M132.800 391.000 L 132.800 393.200 137.000 393.200 L 141.200 393.200 141.200 391.000 L 141.200 388.800 137.000 388.800 L 132.800 388.800 132.800 391.000 M291.600 400.313 C 291.600 403.441,291.666 406.000,291.746 406.000 C 291.826 406.000,293.110 404.863,294.599 403.473 C 297.754 400.527,297.768 400.688,294.029 397.013 L 291.600 394.625 291.600 400.313 M333.600 400.503 L 333.600 406.179 336.398 403.402 L 339.196 400.626 337.498 398.848 C 336.564 397.870,335.305 396.565,334.700 395.948 L 333.600 394.827 333.600 400.503 M41.179 402.339 C 40.617 402.923,39.267 404.159,38.179 405.086 L 36.200 406.772 52.659 406.786 L 69.118 406.800 66.454 404.000 L 63.789 401.200 52.995 401.239 L 42.200 401.279 41.179 402.339 M124.000 402.748 C 123.230 403.570,122.071 404.818,121.425 405.521 L 120.250 406.800 137.283 406.800 L 154.315 406.800 151.427 404.000 L 148.539 401.200 136.970 401.227 L 125.400 401.253 124.000 402.748 M250.501 404.065 L 247.695 406.800 253.547 406.797 L 259.400 406.795 257.415 405.097 C 256.324 404.164,254.952 402.934,254.368 402.365 L 253.306 401.331 250.501 404.065 M295.747 404.007 L 292.895 406.800 308.205 406.800 L 323.515 406.800 320.627 404.000 L 317.739 401.200 308.170 401.207 L 298.600 401.213 295.747 404.007 M337.400 404.038 L 334.600 406.788 349.976 406.794 L 365.351 406.800 362.484 404.000 L 359.616 401.200 349.908 401.245 L 340.200 401.289 337.400 404.038 M92.239 402.500 C 91.832 402.995,90.764 404.165,89.866 405.100 L 88.233 406.800 93.511 406.800 L 98.789 406.800 96.215 404.200 C 93.322 401.279,93.263 401.253,92.239 402.500 M205.944 404.207 L 203.288 406.800 208.944 406.799 L 214.600 406.797 211.800 404.215 C 208.421 401.099,209.127 401.100,205.944 404.207 M273.983 404.384 L 271.400 406.767 277.186 406.784 L 282.972 406.800 281.637 405.700 C 280.902 405.095,279.627 404.015,278.802 403.300 C 276.871 401.626,277.005 401.596,273.983 404.384 " stroke="none" fill="#fbfbfb" fill-rule="evenodd"></path><path id="path2" d="M34.000 381.600 C 34.000 407.333,34.008 407.600,34.800 407.600 C 35.737 407.600,35.867 406.988,35.000 406.655 C 34.197 406.347,34.080 356.880,34.880 356.080 C 35.253 355.707,35.209 355.600,34.680 355.600 C 34.047 355.600,34.000 357.396,34.000 381.600 M75.291 362.700 C 75.399 369.716,75.411 369.802,76.298 369.928 C 76.968 370.023,77.136 369.899,76.960 369.440 C 76.830 369.102,76.516 368.865,76.262 368.913 C 75.932 368.975,75.769 367.141,75.690 362.470 L 75.580 355.940 76.490 356.196 C 77.200 356.396,77.268 356.360,76.800 356.032 C 75.264 354.957,75.177 355.337,75.291 362.700 M332.895 372.287 L 332.800 389.174 343.400 389.287 C 350.276 389.360,354.001 389.259,354.001 389.000 C 354.001 388.741,350.476 388.640,344.000 388.713 C 332.712 388.841,333.021 388.953,336.100 385.846 C 339.271 382.648,339.694 381.883,336.790 384.600 C 335.380 385.920,334.094 387.175,333.934 387.389 C 333.307 388.226,333.197 386.081,333.096 371.000 L 332.990 355.400 332.895 372.287 M290.896 372.700 L 291.000 389.000 301.478 389.107 L 311.957 389.213 312.106 391.107 L 312.256 393.000 312.328 390.749 C 312.374 389.310,312.616 388.318,313.000 388.000 C 313.330 387.726,313.600 387.320,313.600 387.097 C 313.600 386.874,313.227 387.166,312.771 387.746 L 311.942 388.800 301.971 388.800 C 296.487 388.800,292.000 388.659,292.000 388.486 C 292.000 388.314,292.986 387.199,294.190 386.010 C 295.395 384.820,296.309 383.776,296.222 383.689 C 296.135 383.602,295.141 384.473,294.012 385.626 C 291.095 388.606,291.166 388.974,291.291 371.670 C 291.351 363.272,291.263 356.400,291.096 356.400 C 290.928 356.400,290.838 363.735,290.896 372.700 M47.300 362.299 C 50.105 362.368,54.695 362.368,57.500 362.299 C 60.305 362.230,58.010 362.174,52.400 362.174 C 46.790 362.174,44.495 362.230,47.300 362.299 M93.101 375.700 C 93.157 382.135,93.252 390.280,93.312 393.800 C 93.372 397.320,93.461 392.055,93.511 382.100 C 93.560 372.145,93.465 364.000,93.300 364.000 C 93.135 364.000,93.046 369.265,93.101 375.700 M87.378 368.600 C 86.315 369.590,85.660 370.400,85.923 370.400 C 86.286 370.400,86.400 374.857,86.400 389.000 C 86.400 404.632,86.489 407.600,86.957 407.600 C 87.264 407.600,87.617 407.332,87.743 407.005 C 87.875 406.661,87.766 406.450,87.486 406.505 C 87.112 406.578,86.976 402.374,86.896 388.221 L 86.792 369.842 88.277 368.321 C 90.325 366.224,89.732 366.408,87.378 368.600 M225.261 369.154 C 224.964 369.342,224.784 369.787,224.861 370.143 C 224.966 370.631,225.113 370.546,225.462 369.795 C 225.717 369.248,225.897 368.803,225.862 368.806 C 225.828 368.809,225.557 368.966,225.261 369.154 M269.518 369.100 C 269.446 369.265,269.496 370.480,269.627 371.800 L 269.866 374.200 269.933 371.500 C 269.994 369.040,269.865 368.295,269.518 369.100 M356.500 369.100 L 347.200 369.215 347.265 371.707 L 347.330 374.200 347.565 372.000 L 347.800 369.800 356.900 369.692 C 362.511 369.626,366.000 369.434,366.000 369.192 C 366.000 368.977,365.955 368.842,365.900 368.892 C 365.845 368.943,361.615 369.036,356.500 369.100 M134.900 369.496 C 136.165 369.575,138.235 369.575,139.500 369.496 C 140.765 369.416,139.730 369.351,137.200 369.351 C 134.670 369.351,133.635 369.416,134.900 369.496 M305.264 371.700 C 305.300 373.094,305.392 373.580,305.472 372.800 C 305.832 369.301,304.874 369.629,315.106 369.500 L 324.200 369.384 314.700 369.292 L 305.200 369.200 305.264 371.700 M260.520 372.000 C 260.520 373.210,260.595 373.705,260.687 373.100 C 260.778 372.495,260.778 371.505,260.687 370.900 C 260.595 370.295,260.520 370.790,260.520 372.000 M254.800 381.951 C 254.800 382.144,255.074 382.530,255.409 382.808 C 255.918 383.230,255.977 383.206,255.766 382.657 C 255.508 381.982,274.657 381.590,275.323 382.256 C 275.463 382.397,274.918 383.117,274.111 383.856 C 273.304 384.595,272.792 385.200,272.973 385.200 C 273.793 385.200,276.305 382.465,275.879 382.039 C 275.343 381.503,254.800 381.418,254.800 381.951 M358.603 382.795 C 358.463 383.022,358.623 383.089,358.979 382.953 C 359.528 382.742,359.600 383.669,359.600 390.924 C 359.600 397.117,359.477 399.183,359.100 399.335 C 358.801 399.456,358.882 399.550,359.300 399.568 C 359.946 399.598,360.000 398.936,360.000 391.000 C 360.000 382.495,359.738 380.958,358.603 382.795 M148.384 394.101 C 148.266 397.623,148.344 399.601,148.600 399.602 C 148.846 399.602,148.959 398.173,148.893 395.901 C 148.696 389.028,148.568 388.578,148.384 394.101 M69.919 400.300 C 69.853 403.985,69.935 407.171,70.100 407.380 C 70.265 407.589,70.400 404.574,70.400 400.680 C 70.400 391.706,70.075 391.450,69.919 400.300 M251.173 402.305 L 249.800 403.798 251.198 402.599 C 251.967 401.940,252.672 401.355,252.765 401.300 C 252.857 401.245,252.846 401.113,252.739 401.006 C 252.633 400.899,251.928 401.484,251.173 402.305 M204.877 403.842 C 203.489 405.259,202.203 406.325,202.019 406.212 C 201.623 405.967,201.146 407.013,201.494 407.361 C 201.941 407.808,202.800 407.602,202.800 407.049 C 202.800 406.746,204.015 405.308,205.500 403.854 C 206.985 402.400,208.020 401.222,207.800 401.238 C 207.580 401.253,206.265 402.425,204.877 403.842 M246.000 406.886 C 246.000 407.279,246.174 407.600,246.386 407.600 C 246.598 407.600,246.944 407.279,247.154 406.886 C 247.459 406.315,247.382 406.171,246.768 406.171 C 246.297 406.171,246.000 406.448,246.000 406.886 M269.600 406.837 C 269.600 407.718,270.610 407.872,270.930 407.039 C 271.057 406.706,270.832 406.397,270.372 406.277 C 269.809 406.129,269.600 406.281,269.600 406.837 M118.667 406.667 C 118.206 407.127,118.375 407.600,119.000 407.600 C 119.330 407.600,119.600 407.330,119.600 407.000 C 119.600 406.375,119.127 406.206,118.667 406.667 M291.067 406.667 C 290.606 407.127,290.775 407.600,291.400 407.600 C 291.730 407.600,292.000 407.330,292.000 407.000 C 292.000 406.375,291.527 406.206,291.067 406.667 M332.800 407.000 C 332.800 407.330,333.070 407.600,333.400 407.600 C 333.730 407.600,334.000 407.330,334.000 407.000 C 334.000 406.670,333.730 406.400,333.400 406.400 C 333.070 406.400,332.800 406.670,332.800 407.000 " stroke="none" fill="#333333" fill-rule="evenodd"></path><path id="path3" d="M34.280 355.458 C 34.544 355.565,36.111 356.991,37.762 358.627 C 39.413 360.262,40.907 361.599,41.082 361.598 C 41.257 361.597,39.960 360.162,38.200 358.408 C 36.440 356.655,34.730 355.230,34.400 355.242 C 34.023 355.255,33.978 355.336,34.280 355.458 M245.784 355.700 C 245.679 355.975,245.639 367.810,245.696 382.000 L 245.800 407.800 253.136 407.909 C 258.406 407.988,260.431 407.892,260.324 407.571 C 260.169 407.107,247.770 407.006,246.588 407.460 C 246.201 407.609,246.000 407.432,246.000 406.943 C 246.000 406.424,246.316 406.182,247.048 406.139 C 248.159 406.075,252.423 402.240,252.278 401.435 C 252.235 401.196,252.425 401.045,252.700 401.100 C 252.975 401.155,253.200 401.020,253.200 400.800 C 253.200 400.001,252.566 400.453,249.721 403.278 C 248.127 404.861,246.733 406.066,246.623 405.956 C 246.512 405.846,246.407 394.380,246.388 380.478 C 246.370 366.575,246.269 355.200,246.165 355.200 C 246.060 355.200,245.889 355.425,245.784 355.700 M69.187 361.500 C 69.170 369.491,70.138 368.801,58.956 368.795 C 49.843 368.789,47.811 368.630,48.228 367.955 C 48.349 367.760,48.167 367.600,47.824 367.600 C 47.481 367.600,47.200 367.330,47.200 367.000 C 47.200 366.670,46.919 366.400,46.576 366.400 C 46.233 366.400,46.035 366.265,46.135 366.100 C 46.235 365.935,45.841 365.452,45.259 365.027 L 44.200 364.255 44.986 365.227 C 45.419 365.762,46.499 366.972,47.386 367.916 L 49.000 369.633 49.218 381.516 L 49.435 393.400 49.418 381.400 L 49.400 369.400 58.800 369.516 C 71.390 369.672,70.000 370.556,70.000 362.392 C 70.000 358.131,69.851 355.600,69.600 355.600 C 69.352 355.600,69.195 357.842,69.187 361.500 M155.773 365.000 C 155.773 370.280,155.830 372.385,155.899 369.677 C 155.968 366.969,155.968 362.649,155.899 360.077 C 155.829 357.505,155.772 359.720,155.773 365.000 M201.238 381.200 C 201.252 395.390,201.351 406.785,201.457 406.522 C 201.720 405.877,202.800 406.333,202.800 407.089 C 202.800 407.496,202.539 407.625,202.000 407.484 C 201.560 407.369,201.200 407.442,201.200 407.646 C 201.200 407.865,204.274 407.973,208.700 407.909 L 216.200 407.800 216.307 398.500 C 216.378 392.384,216.275 389.200,216.007 389.200 C 215.743 389.200,215.600 392.280,215.600 397.957 C 215.600 408.262,216.385 407.200,208.767 407.200 C 202.290 407.200,202.450 407.376,205.841 403.959 C 207.495 402.292,208.313 401.194,208.031 401.019 C 207.775 400.861,207.628 400.961,207.690 401.252 C 207.751 401.533,207.530 401.772,207.200 401.782 C 206.870 401.792,206.592 402.070,206.582 402.400 C 206.572 402.730,206.333 402.951,206.052 402.890 C 205.771 402.830,205.642 402.944,205.766 403.145 C 206.058 403.617,205.020 404.486,204.630 404.097 C 204.467 403.933,204.393 404.070,204.467 404.400 C 204.555 404.797,204.330 404.970,203.800 404.912 C 203.360 404.863,203.220 404.921,203.488 405.041 C 203.872 405.212,203.872 405.371,203.490 405.779 C 202.045 407.326,202.000 406.588,201.994 381.257 C 201.990 366.029,201.839 356.371,201.600 356.000 C 201.348 355.609,201.221 364.407,201.238 381.200 M284.589 381.600 C 284.589 396.010,284.639 401.905,284.700 394.700 C 284.761 387.495,284.761 375.705,284.700 368.500 C 284.639 361.295,284.589 367.190,284.589 381.600 M332.583 372.200 C 332.583 381.440,332.636 385.163,332.700 380.473 C 332.764 375.783,332.764 368.223,332.699 363.673 C 332.635 359.123,332.583 362.960,332.583 372.200 M75.784 362.400 C 75.796 367.167,75.928 368.976,76.262 368.913 C 76.516 368.865,76.834 369.111,76.968 369.460 C 77.160 369.961,77.001 370.055,76.218 369.906 C 75.671 369.801,75.319 369.870,75.436 370.058 C 75.737 370.545,85.497 370.490,85.800 370.000 C 85.959 369.743,84.471 369.600,81.624 369.600 C 77.827 369.600,77.200 369.509,77.200 368.957 C 77.200 368.555,76.979 368.399,76.610 368.541 C 76.108 368.734,76.001 367.801,75.894 362.284 L 75.768 355.800 75.784 362.400 M118.329 381.000 C 118.289 394.750,118.244 406.405,118.229 406.900 L 118.200 407.800 137.200 407.896 C 148.008 407.951,155.966 407.843,155.657 407.646 C 155.279 407.405,155.249 407.217,155.557 407.026 C 155.860 406.840,155.998 403.939,155.994 397.876 C 155.988 389.637,155.731 387.304,154.922 388.166 C 154.745 388.355,154.825 388.590,155.100 388.688 C 156.164 389.068,155.779 406.659,154.700 406.948 C 153.334 407.314,120.000 407.247,120.000 406.878 C 120.000 406.702,120.623 405.953,121.384 405.215 C 122.146 404.477,122.675 403.722,122.561 403.537 C 122.446 403.351,122.633 403.200,122.976 403.200 C 123.319 403.200,123.555 402.983,123.500 402.718 C 123.445 402.453,123.610 402.228,123.867 402.218 C 124.563 402.191,125.028 401.600,124.353 401.600 C 123.423 401.600,119.600 405.713,119.600 406.713 C 119.600 407.235,119.353 407.600,119.000 407.600 C 118.407 407.600,118.201 407.133,118.612 406.721 C 118.728 406.605,118.816 395.325,118.806 381.655 C 118.796 367.985,118.928 356.800,119.098 356.800 C 119.269 356.800,120.204 357.565,121.178 358.500 C 123.189 360.433,122.964 359.762,120.842 357.500 C 118.275 354.763,118.407 353.524,118.329 381.000 M34.588 381.400 C 34.588 395.260,34.639 400.872,34.700 393.871 C 34.761 386.870,34.761 375.530,34.700 368.671 C 34.638 361.812,34.588 367.540,34.588 381.400 M291.295 371.913 C 291.214 384.917,291.287 387.258,291.775 387.446 C 292.091 387.567,292.252 387.921,292.132 388.233 C 291.990 388.602,292.174 388.789,292.657 388.768 C 293.148 388.748,293.216 388.663,292.858 388.521 C 292.493 388.376,293.203 387.410,295.031 385.569 C 296.524 384.064,297.806 382.437,297.880 381.954 C 298.001 381.163,297.923 381.190,297.107 382.227 C 296.608 382.862,296.200 383.565,296.200 383.790 C 296.200 384.016,295.930 384.200,295.600 384.200 C 295.270 384.200,294.992 384.470,294.982 384.800 C 294.972 385.130,294.747 385.355,294.482 385.300 C 294.217 385.245,294.045 385.417,294.100 385.682 C 294.155 385.947,293.930 386.172,293.600 386.182 C 293.270 386.192,293.000 386.425,293.000 386.700 C 293.000 386.975,292.865 387.200,292.700 387.200 C 292.535 387.200,292.222 387.200,292.005 387.200 C 291.753 387.200,291.570 381.637,291.500 371.900 L 291.390 356.600 291.295 371.913 M334.704 357.630 C 335.087 358.087,335.758 358.656,336.195 358.895 C 336.720 359.182,336.585 358.900,335.797 358.065 C 334.475 356.665,333.603 356.318,334.704 357.630 M248.000 357.555 C 248.000 357.995,249.159 358.974,249.398 358.736 C 249.496 358.638,249.221 358.254,248.788 357.883 C 248.355 357.511,248.000 357.364,248.000 357.555 M79.235 359.754 C 79.735 360.329,80.224 360.800,80.321 360.800 C 80.680 360.800,79.314 359.038,78.829 358.876 C 78.552 358.784,78.735 359.179,79.235 359.754 M230.280 363.333 C 229.768 364.116,229.760 364.267,230.234 364.267 C 230.546 364.267,230.800 363.950,230.800 363.563 C 230.800 363.175,231.115 362.776,231.500 362.676 C 232.095 362.520,232.102 362.486,231.546 362.446 C 231.186 362.421,230.617 362.820,230.280 363.333 M339.521 371.855 L 339.641 381.235 336.984 383.987 C 335.522 385.501,334.595 386.701,334.923 386.652 C 335.759 386.530,336.791 385.609,336.687 385.080 C 336.639 384.836,336.870 384.628,337.200 384.618 C 337.530 384.608,337.800 384.375,337.800 384.100 C 337.800 383.825,337.980 383.587,338.200 383.571 C 339.869 383.453,340.000 382.653,340.000 372.562 C 340.000 367.219,339.865 362.764,339.700 362.661 C 339.535 362.559,339.454 366.696,339.521 371.855 M124.800 381.624 C 124.800 394.071,124.935 400.363,125.200 400.200 C 125.457 400.041,125.600 393.329,125.600 381.376 C 125.600 369.259,125.461 362.800,125.200 362.800 C 124.939 362.800,124.800 369.341,124.800 381.624 M79.347 365.476 C 78.192 366.727,77.359 367.933,77.496 368.156 C 77.646 368.398,77.823 368.331,77.937 367.990 C 78.041 367.676,78.731 366.885,79.469 366.231 C 80.887 364.976,82.214 363.200,81.733 363.200 C 81.576 363.200,80.503 364.224,79.347 365.476 M94.683 363.951 C 95.605 364.837,96.225 365.087,95.801 364.402 C 95.666 364.183,95.160 363.801,94.678 363.553 L 93.800 363.101 94.683 363.951 M148.659 364.089 C 148.472 364.688,148.382 368.963,148.459 373.589 C 148.564 379.854,148.480 382.000,148.129 382.000 C 147.870 382.000,147.269 382.495,146.793 383.100 C 146.317 383.705,145.852 384.153,145.759 384.095 C 145.666 384.037,144.984 384.542,144.242 385.216 C 143.500 385.891,142.581 386.672,142.198 386.952 C 141.694 387.321,141.451 388.220,141.311 390.230 L 141.119 393.000 144.112 395.900 C 145.758 397.495,147.250 398.800,147.428 398.800 C 147.606 398.800,146.457 397.536,144.876 395.992 L 142.000 393.184 142.000 390.615 C 142.000 387.779,141.516 388.489,146.712 383.700 C 148.231 382.300,149.031 382.021,148.646 383.025 C 148.514 383.369,148.540 387.194,148.703 391.525 L 149.000 399.400 149.200 390.800 L 149.400 382.200 150.189 383.100 C 150.623 383.595,151.144 384.000,151.348 384.000 C 151.552 384.000,151.125 383.432,150.399 382.739 C 149.215 381.607,149.147 381.428,149.740 380.995 C 150.103 380.729,150.400 380.375,150.400 380.207 C 150.400 380.039,150.133 380.123,149.808 380.394 C 149.288 380.825,149.202 379.786,149.108 371.943 C 149.040 366.278,148.875 363.399,148.659 364.089 M273.765 365.116 C 271.366 367.090,271.297 367.180,272.300 367.011 C 272.685 366.947,272.955 366.693,272.900 366.447 C 272.845 366.201,273.051 366.000,273.357 366.000 C 273.664 366.000,274.019 365.728,274.146 365.396 C 274.273 365.064,274.608 364.839,274.889 364.896 C 275.170 364.953,275.355 364.775,275.300 364.500 C 275.241 364.207,275.613 364.000,276.200 364.000 C 276.750 364.000,277.200 363.850,277.200 363.667 C 277.200 362.863,275.767 363.468,273.765 365.116 M299.200 363.325 C 299.200 363.394,299.778 363.979,300.485 364.625 C 301.623 365.666,301.378 365.030,300.129 363.702 C 299.690 363.235,299.200 363.036,299.200 363.325 M91.762 363.938 C 91.931 364.212,91.793 364.400,91.424 364.400 C 91.081 364.400,90.800 364.670,90.800 365.000 C 90.800 365.330,90.638 365.555,90.440 365.500 C 90.242 365.445,90.035 365.580,89.980 365.800 C 89.925 366.020,89.609 366.398,89.279 366.639 C 88.770 367.011,88.764 367.127,89.239 367.403 C 89.548 367.582,89.684 367.598,89.542 367.439 C 89.400 367.281,90.014 366.470,90.905 365.638 C 92.107 364.517,92.391 364.042,92.002 363.801 C 91.654 363.586,91.573 363.632,91.762 363.938 M144.869 366.130 C 143.511 367.500,142.400 368.797,142.400 369.011 C 142.401 369.225,142.827 368.905,143.347 368.300 C 143.867 367.695,144.497 367.200,144.747 367.200 C 144.996 367.200,145.200 366.919,145.200 366.576 C 145.200 366.233,145.352 366.047,145.539 366.162 C 145.725 366.277,146.370 365.858,146.972 365.230 C 147.573 364.602,147.902 363.987,147.702 363.863 C 147.502 363.740,146.228 364.760,144.869 366.130 M92.894 382.419 L 92.800 400.638 91.220 402.180 C 90.352 403.028,89.677 403.920,89.720 404.161 C 89.764 404.403,89.575 404.555,89.300 404.500 C 89.025 404.445,88.800 404.705,88.800 405.078 C 88.800 405.589,89.142 405.426,90.180 404.419 C 90.939 403.683,91.524 402.891,91.480 402.659 C 91.436 402.426,91.625 402.228,91.900 402.218 C 92.175 402.208,92.413 402.020,92.429 401.800 C 92.444 401.580,92.669 401.130,92.929 400.800 C 93.282 400.351,93.348 395.684,93.194 382.200 L 92.988 364.200 92.894 382.419 M228.632 365.622 C 227.511 366.752,228.021 366.867,229.192 365.748 C 229.737 365.227,230.007 364.811,229.792 364.824 C 229.576 364.837,229.054 365.196,228.632 365.622 M226.427 367.834 C 225.309 368.904,225.042 369.806,225.018 372.600 L 225.000 374.600 220.700 374.475 L 216.400 374.350 216.400 372.608 C 216.400 371.649,216.293 370.536,216.162 370.133 C 216.025 369.711,216.068 369.570,216.262 369.800 C 216.782 370.415,224.801 370.321,224.801 369.700 C 224.800 369.329,223.610 369.200,220.182 369.200 L 215.565 369.200 215.682 372.011 L 215.800 374.822 220.800 374.911 L 225.800 375.000 225.665 372.471 C 225.559 370.492,225.681 369.773,226.227 369.171 C 226.610 368.747,226.772 368.400,226.586 368.400 C 226.399 368.400,226.596 368.145,227.023 367.833 C 227.450 367.521,227.709 367.184,227.599 367.085 C 227.490 366.985,226.962 367.323,226.427 367.834 M364.600 367.806 C 365.040 368.164,365.351 368.637,365.290 368.858 C 365.230 369.079,365.368 369.144,365.597 369.002 C 366.137 368.668,365.778 368.112,364.678 367.580 C 363.815 367.163,363.813 367.167,364.600 367.806 M88.100 368.082 C 88.155 368.347,87.947 368.572,87.638 368.582 C 87.329 368.592,87.027 368.934,86.967 369.342 C 86.870 370.007,86.959 369.990,87.817 369.184 C 88.344 368.689,88.680 368.130,88.564 367.942 C 88.255 367.443,87.984 367.524,88.100 368.082 M270.224 368.213 C 269.277 368.929,261.602 369.043,260.325 368.360 C 259.663 368.006,259.569 368.025,259.839 368.460 C 260.024 368.757,260.119 370.215,260.051 371.700 C 259.984 373.185,260.079 374.400,260.264 374.401 C 260.449 374.401,260.600 373.366,260.600 372.101 L 260.600 369.800 264.900 369.686 L 269.200 369.573 269.200 371.986 C 269.200 373.418,269.372 374.400,269.624 374.400 C 269.857 374.400,269.962 374.261,269.857 374.092 C 269.459 373.449,269.454 369.000,269.851 369.000 C 270.074 369.000,270.572 368.685,270.957 368.300 C 271.803 367.454,271.305 367.394,270.224 368.213 M322.800 367.829 C 322.800 367.954,323.102 368.359,323.472 368.729 C 324.102 369.357,323.559 369.413,314.972 369.611 L 305.800 369.823 315.100 369.911 C 324.844 370.004,325.101 369.957,323.843 368.300 C 323.322 367.613,322.800 367.377,322.800 367.829 M105.500 369.111 L 100.000 369.223 100.000 388.054 C 100.000 404.629,99.928 406.858,99.400 406.655 C 99.070 406.529,98.800 406.599,98.800 406.813 C 98.800 407.324,88.793 407.312,88.000 406.800 C 87.491 406.471,87.510 406.411,88.124 406.406 C 88.526 406.403,88.732 406.214,88.588 405.981 C 88.408 405.690,88.175 405.689,87.828 405.977 C 87.552 406.206,87.206 406.306,87.060 406.200 C 86.913 406.094,86.975 406.221,87.197 406.483 C 87.778 407.171,87.696 407.516,86.900 407.729 C 86.515 407.833,89.350 407.891,93.200 407.859 L 100.200 407.800 100.400 389.000 L 100.600 370.200 105.992 370.088 C 108.958 370.026,111.535 369.825,111.719 369.641 C 112.277 369.083,111.240 368.995,105.500 369.111 M347.861 369.900 C 347.759 370.065,350.493 370.154,353.937 370.097 C 365.498 369.907,366.667 369.763,357.324 369.681 C 352.222 369.637,347.963 369.735,347.861 369.900 M305.539 372.400 C 305.462 373.500,305.535 374.400,305.700 374.400 C 305.865 374.400,306.000 373.500,306.000 372.400 C 306.000 369.819,305.717 369.820,305.539 372.400 M226.000 375.710 C 226.000 375.771,227.320 377.131,228.933 378.734 C 230.611 380.401,231.867 381.381,231.867 381.024 C 231.867 380.681,231.652 380.400,231.391 380.400 C 231.129 380.400,229.944 379.324,228.757 378.008 C 226.932 375.984,226.000 375.207,226.000 375.710 M276.000 382.195 C 276.477 382.772,276.644 384.728,276.815 391.760 L 277.030 400.600 277.115 391.514 C 277.200 382.460,277.197 382.426,276.300 381.949 C 275.459 381.500,275.439 381.516,276.000 382.195 M358.200 382.800 C 357.802 383.240,357.618 383.600,357.792 383.600 C 357.966 383.600,357.634 383.973,357.054 384.429 C 356.474 384.885,356.013 385.560,356.028 385.929 C 356.052 386.510,356.095 386.502,356.344 385.870 C 356.502 385.469,356.759 385.154,356.916 385.170 C 357.072 385.187,357.224 385.065,357.254 384.900 C 357.283 384.735,357.646 384.363,358.060 384.073 C 358.475 383.783,358.709 383.376,358.581 383.169 C 358.453 382.962,358.765 382.626,359.274 382.422 C 359.860 382.187,359.965 382.041,359.562 382.025 C 359.211 382.011,358.598 382.360,358.200 382.800 M275.300 382.900 C 275.355 383.175,275.175 383.355,274.900 383.300 C 274.625 383.245,274.445 383.425,274.500 383.700 C 274.555 383.975,274.362 384.151,274.070 384.090 C 273.773 384.028,273.660 384.173,273.812 384.420 C 273.991 384.710,274.408 384.556,275.030 383.972 C 275.550 383.483,275.880 382.930,275.764 382.742 C 275.452 382.236,275.185 382.327,275.300 382.900 M317.515 391.239 C 317.451 395.980,317.559 399.775,317.762 399.901 C 317.961 400.023,317.995 399.916,317.838 399.662 C 317.681 399.408,317.743 399.200,317.976 399.200 C 318.261 399.200,318.400 396.505,318.400 391.000 C 318.400 386.020,318.249 382.800,318.015 382.800 C 317.785 382.800,317.585 386.186,317.515 391.239 M360.091 391.071 C 360.008 398.757,359.935 399.558,359.300 399.724 C 358.644 399.896,358.645 399.910,359.313 399.954 C 360.384 400.023,360.426 399.631,360.300 390.789 L 360.182 382.600 360.091 391.071 M256.600 384.350 C 257.260 384.982,257.881 385.426,257.981 385.336 C 258.204 385.133,256.155 383.200,255.717 383.200 C 255.543 383.201,255.940 383.718,256.600 384.350 M315.626 383.769 C 315.351 384.100,315.314 384.423,315.535 384.560 C 315.741 384.687,316.118 384.539,316.374 384.231 C 316.649 383.900,316.686 383.577,316.465 383.440 C 316.259 383.313,315.882 383.461,315.626 383.769 M213.000 385.600 C 213.859 386.480,214.652 387.200,214.762 387.200 C 214.872 387.200,214.259 386.480,213.400 385.600 C 212.541 384.720,211.748 384.000,211.638 384.000 C 211.528 384.000,212.141 384.720,213.000 385.600 M234.013 384.238 C 233.992 384.949,235.481 386.116,235.784 385.626 C 235.929 385.392,235.831 385.200,235.568 385.200 C 235.304 385.200,234.849 384.885,234.557 384.500 C 234.265 384.115,234.020 383.997,234.013 384.238 M272.350 384.976 C 272.322 385.099,272.269 385.425,272.232 385.700 C 272.194 385.975,271.971 386.163,271.735 386.118 C 271.139 386.003,269.456 387.864,269.905 388.141 C 270.106 388.265,270.946 387.675,271.771 386.829 C 272.704 385.874,273.107 385.190,272.836 385.022 C 272.596 384.874,272.377 384.853,272.350 384.976 M314.212 385.586 C 313.161 386.748,313.669 387.404,314.738 386.266 C 315.245 385.726,315.491 385.180,315.284 385.052 C 315.076 384.924,314.594 385.164,314.212 385.586 M236.295 386.255 C 236.138 386.505,236.277 386.932,236.604 387.204 C 236.932 387.476,237.200 387.856,237.200 388.049 C 237.200 388.552,216.928 388.497,215.983 387.991 C 215.366 387.661,215.263 387.699,215.451 388.188 C 215.579 388.522,215.845 388.696,216.042 388.574 C 216.239 388.452,216.400 388.543,216.400 388.776 C 216.400 389.064,219.929 389.200,227.414 389.200 C 238.046 389.200,238.414 389.174,238.028 388.453 C 237.808 388.042,237.742 387.592,237.881 387.453 C 238.020 387.314,237.847 387.200,237.496 387.200 C 237.145 387.200,236.796 386.885,236.720 386.500 C 236.629 386.042,236.482 385.957,236.295 386.255 M354.830 386.964 C 354.509 387.350,354.494 387.611,354.781 387.788 C 355.011 387.931,355.214 387.992,355.231 387.924 C 355.619 386.355,355.524 386.128,354.830 386.964 M312.587 387.622 C 312.439 387.861,311.932 388.213,311.459 388.405 C 310.688 388.717,310.716 388.746,311.725 388.687 C 312.955 388.615,313.901 387.833,313.247 387.429 C 313.032 387.296,312.734 387.383,312.587 387.622 M132.200 388.000 C 132.340 388.227,134.337 388.400,136.824 388.400 C 139.475 388.400,141.200 388.242,141.200 388.000 C 141.200 387.756,139.392 387.600,136.576 387.600 C 133.596 387.600,132.041 387.742,132.200 388.000 M260.800 388.400 C 260.800 388.641,262.464 388.800,264.993 388.800 L 269.186 388.800 269.293 398.300 L 269.400 407.800 276.691 407.909 C 282.462 407.995,283.941 407.912,283.787 407.509 C 283.570 406.944,270.801 406.739,270.800 407.300 C 270.800 407.465,270.575 407.600,270.300 407.600 C 269.911 407.601,269.829 405.566,269.933 398.404 C 270.045 390.612,269.973 389.116,269.461 388.604 C 268.750 387.893,260.800 387.705,260.800 388.400 M353.200 388.444 C 352.687 388.813,352.698 388.844,353.274 388.660 C 353.645 388.542,354.036 388.660,354.143 388.922 C 354.249 389.185,354.351 389.085,354.368 388.700 C 354.405 387.900,354.061 387.825,353.200 388.444 M311.539 391.200 C 311.615 392.300,311.795 393.200,311.939 393.200 C 312.082 393.200,312.138 392.300,312.061 391.200 C 311.985 390.100,311.805 389.200,311.661 389.200 C 311.518 389.200,311.462 390.100,311.539 391.200 M353.190 389.463 C 353.416 389.575,353.600 390.553,353.600 391.637 C 353.600 393.280,353.799 393.816,354.800 394.863 C 355.460 395.554,356.000 395.922,356.000 395.682 C 356.000 395.442,355.597 394.963,355.104 394.618 C 354.412 394.133,354.162 393.477,354.004 391.727 C 353.880 390.348,353.601 389.423,353.290 389.361 C 353.010 389.306,352.965 389.351,353.190 389.463 M290.800 400.400 C 290.800 404.596,290.940 406.761,291.200 406.600 C 291.438 406.453,291.600 403.937,291.600 400.400 C 291.600 396.863,291.438 394.347,291.200 394.200 C 290.940 394.039,290.800 396.204,290.800 400.400 M332.491 400.935 L 332.600 407.800 349.489 407.904 C 362.947 407.987,366.339 407.906,366.185 407.504 C 366.033 407.108,362.620 407.024,350.196 407.113 C 340.647 407.182,334.400 407.080,334.400 406.855 C 334.400 406.650,335.049 405.913,335.842 405.217 C 336.635 404.520,337.160 403.827,337.008 403.675 C 336.856 403.524,336.306 403.895,335.785 404.500 C 335.264 405.105,334.650 405.600,334.419 405.600 C 334.189 405.600,334.000 406.050,334.000 406.600 C 334.000 407.222,333.773 407.600,333.400 407.600 C 333.070 407.600,332.800 407.330,332.800 407.000 C 332.800 406.670,332.935 406.400,333.100 406.401 C 333.265 406.401,333.346 403.791,333.279 400.601 C 333.161 394.911,333.333 394.114,334.400 395.400 C 334.674 395.730,335.063 396.000,335.265 396.000 C 335.929 396.000,334.220 394.523,333.291 394.294 L 332.381 394.070 332.491 400.935 M292.900 395.393 C 293.505 395.926,294.000 396.531,294.000 396.738 C 294.000 397.072,294.906 397.600,295.480 397.600 C 295.598 397.600,294.974 396.880,294.094 396.000 C 293.214 395.120,292.338 394.406,292.147 394.413 C 291.956 394.420,292.295 394.861,292.900 395.393 M313.562 395.129 C 313.805 395.584,314.201 396.077,314.442 396.226 C 314.756 396.420,314.754 396.262,314.438 395.671 C 314.195 395.216,313.799 394.723,313.558 394.574 C 313.244 394.380,313.246 394.538,313.562 395.129 M42.593 400.789 C 42.924 401.324,64.000 401.358,64.000 400.824 C 64.000 400.599,59.637 400.434,53.169 400.413 C 45.845 400.389,42.421 400.511,42.593 400.789 M125.200 400.792 C 124.631 400.979,129.590 401.137,136.700 401.160 C 144.031 401.184,149.200 401.048,149.200 400.834 C 149.200 400.375,126.591 400.336,125.200 400.792 M302.000 400.679 C 310.436 400.964,318.401 400.974,318.401 400.700 C 318.400 400.535,313.945 400.437,308.500 400.482 C 303.055 400.527,300.130 400.616,302.000 400.679 M338.288 401.842 C 336.766 403.614,337.549 403.903,339.215 402.184 L 340.557 400.800 349.998 400.800 C 356.809 400.800,359.574 400.934,359.920 401.280 C 360.241 401.601,360.400 401.615,360.400 401.323 C 360.400 400.307,340.792 399.842,340.174 400.843 C 340.014 401.100,339.795 401.131,339.650 400.916 C 339.513 400.713,338.900 401.129,338.288 401.842 M40.053 402.201 C 39.377 402.971,38.628 403.600,38.389 403.600 C 38.149 403.600,38.082 403.810,38.241 404.066 C 38.436 404.381,38.824 404.187,39.445 403.466 C 39.949 402.880,40.528 402.400,40.732 402.400 C 41.334 402.400,42.083 401.299,41.660 401.037 C 41.451 400.908,40.728 401.432,40.053 402.201 M275.730 401.300 C 275.555 401.575,275.409 401.980,275.406 402.200 C 275.403 402.420,275.197 402.600,274.948 402.600 C 274.700 402.600,273.583 403.455,272.466 404.500 C 270.904 405.961,270.615 406.400,271.217 406.400 C 271.648 406.400,272.000 406.130,272.000 405.800 C 272.000 405.470,272.270 405.200,272.600 405.200 C 272.930 405.200,273.155 405.065,273.100 404.900 C 273.045 404.735,273.180 404.547,273.400 404.482 C 274.133 404.264,276.372 401.878,276.162 401.538 C 276.048 401.353,276.426 401.382,277.003 401.601 C 278.459 402.155,278.685 402.100,277.776 401.413 C 276.815 400.685,276.144 400.648,275.730 401.300 M209.600 401.457 C 209.600 401.685,210.230 402.445,211.000 403.145 C 211.770 403.846,212.400 404.270,212.400 404.088 C 212.400 403.906,211.770 403.146,211.000 402.400 C 210.230 401.654,209.600 401.229,209.600 401.457 M254.400 402.000 C 254.907 402.440,255.413 402.800,255.523 402.800 C 255.634 402.800,255.398 402.440,255.000 402.000 C 254.602 401.560,254.096 401.200,253.877 401.200 C 253.657 401.200,253.893 401.560,254.400 402.000 M294.700 403.743 C 293.215 405.094,292.000 406.502,292.000 406.871 C 292.000 407.240,291.685 407.624,291.300 407.724 C 290.915 407.825,298.205 407.928,307.500 407.954 C 326.459 408.006,325.751 408.133,322.831 405.184 C 321.969 404.313,321.129 403.600,320.965 403.600 C 320.801 403.600,321.327 404.260,322.133 405.067 C 322.940 405.873,323.600 406.683,323.600 406.867 C 323.600 407.050,316.670 407.200,308.200 407.200 C 299.730 407.200,292.802 407.065,292.804 406.900 C 292.805 406.735,293.905 405.464,295.246 404.076 C 298.415 400.796,298.130 400.622,294.700 403.743 M318.897 401.566 C 318.978 401.877,319.484 402.406,320.022 402.741 C 320.786 403.218,320.873 403.225,320.418 402.775 C 320.098 402.459,319.592 401.930,319.293 401.600 C 318.853 401.114,318.778 401.108,318.897 401.566 M151.000 403.200 C 151.859 404.080,152.637 404.800,152.728 404.800 C 153.065 404.800,150.186 401.666,149.819 401.634 C 149.609 401.615,150.141 402.320,151.000 403.200 M65.609 402.466 C 65.604 402.613,66.410 403.602,67.400 404.665 C 68.390 405.729,69.200 406.734,69.200 406.899 C 69.200 407.065,61.730 407.200,52.600 407.200 C 43.470 407.200,36.006 407.065,36.013 406.900 C 36.036 406.345,37.084 405.200,37.568 405.200 C 37.831 405.200,37.927 405.005,37.780 404.767 C 37.417 404.179,35.198 406.329,35.461 407.014 C 35.581 407.329,35.291 407.607,34.731 407.714 C 34.219 407.811,42.057 407.916,52.149 407.946 C 68.173 407.993,70.437 407.926,70.015 407.418 C 69.749 407.097,69.647 406.647,69.789 406.418 C 69.931 406.188,69.866 406.000,69.646 406.000 C 69.425 406.000,68.428 405.145,67.431 404.100 C 66.434 403.055,65.614 402.320,65.609 402.466 M278.800 403.000 C 279.074 403.330,279.478 403.600,279.698 403.600 C 279.921 403.600,279.878 403.335,279.600 403.000 C 279.326 402.670,278.922 402.400,278.702 402.400 C 278.479 402.400,278.522 402.665,278.800 403.000 M364.000 404.967 C 364.000 405.388,365.205 406.528,365.421 406.312 C 365.522 406.211,365.244 405.802,364.802 405.402 C 364.361 405.003,364.000 404.807,364.000 404.967 " stroke="none" fill="#7c7c7c" fill-rule="evenodd"></path><path id="path4" d="M117.867 355.467 C 117.290 356.043,117.563 407.472,118.146 407.955 C 118.539 408.281,123.931 408.379,137.446 408.304 L 156.200 408.200 156.307 398.687 C 156.411 389.445,156.220 387.600,155.157 387.600 C 154.929 387.600,155.026 387.883,155.371 388.229 C 155.908 388.765,156.000 390.261,156.000 398.432 L 156.000 408.008 137.172 407.904 L 118.344 407.800 118.385 381.500 C 118.408 367.035,118.361 355.200,118.280 355.200 C 118.199 355.200,118.013 355.320,117.867 355.467 M155.500 355.465 C 155.880 355.618,155.999 357.890,155.995 364.933 L 155.990 374.200 154.095 376.211 C 153.053 377.317,151.840 378.683,151.400 379.245 C 150.960 379.808,151.905 378.919,153.500 377.270 L 156.400 374.272 156.400 364.736 C 156.400 355.909,156.348 355.202,155.700 355.232 C 155.282 355.250,155.201 355.344,155.500 355.465 M200.984 355.700 C 200.879 355.975,200.841 367.810,200.899 382.000 L 201.006 407.800 201.103 381.733 C 201.179 361.328,201.309 355.623,201.700 355.465 C 202.092 355.307,202.089 355.256,201.687 355.232 C 201.406 355.214,201.089 355.425,200.984 355.700 M245.467 355.467 C 245.133 355.800,245.110 406.900,245.443 407.767 C 245.702 408.443,260.800 408.770,260.800 408.100 C 260.800 407.935,257.425 407.800,253.300 407.800 L 245.800 407.800 245.800 381.500 C 245.800 367.035,245.785 355.200,245.767 355.200 C 245.748 355.200,245.613 355.320,245.467 355.467 M284.390 355.463 C 284.664 355.599,284.800 364.296,284.800 381.626 L 284.800 407.585 283.897 407.811 C 283.400 407.936,279.907 407.985,276.134 407.919 C 272.362 407.854,269.359 407.935,269.461 408.100 C 269.823 408.684,284.258 408.453,284.754 407.855 C 285.448 407.019,285.189 355.505,284.490 355.363 C 284.210 355.306,284.165 355.351,284.390 355.463 M324.709 362.482 L 324.600 369.800 315.200 370.011 L 305.800 370.222 315.457 370.311 C 323.947 370.389,325.144 370.324,325.357 369.767 C 325.768 368.698,325.633 355.668,325.209 355.406 C 324.961 355.253,324.778 357.846,324.709 362.482 M332.183 355.701 C 332.077 355.976,332.040 363.491,332.100 372.401 L 332.209 388.600 332.305 372.129 C 332.393 356.826,332.450 355.646,333.100 355.476 C 333.756 355.304,333.755 355.290,333.087 355.246 C 332.696 355.221,332.288 355.425,332.183 355.701 M112.039 362.100 C 111.963 365.785,111.878 369.025,111.850 369.300 C 111.814 369.663,110.268 369.855,106.200 370.000 L 100.600 370.200 100.400 389.000 L 100.200 407.800 93.430 407.910 C 88.296 407.993,86.573 407.897,86.299 407.510 C 86.027 407.124,85.979 407.146,86.103 407.600 C 86.241 408.105,87.402 408.200,93.433 408.200 L 100.600 408.200 100.704 389.300 L 100.808 370.400 106.396 370.400 C 113.087 370.400,112.479 371.265,112.304 362.000 L 112.179 355.400 112.039 362.100 M238.895 371.667 C 238.843 380.614,238.696 388.264,238.570 388.667 C 238.362 389.328,238.382 389.334,238.774 388.727 C 239.074 388.264,239.175 382.978,239.100 371.727 L 238.991 355.400 238.895 371.667 M202.003 356.094 C 202.002 356.256,202.930 357.336,204.066 358.494 C 205.203 359.652,205.788 360.155,205.366 359.612 C 204.074 357.945,202.007 355.783,202.003 356.094 M291.611 356.238 C 291.617 356.437,292.182 357.140,292.865 357.800 C 293.712 358.617,293.975 358.744,293.691 358.196 C 293.189 357.227,291.595 355.727,291.611 356.238 M333.443 356.633 C 333.056 357.640,333.161 387.200,333.551 387.200 C 333.744 387.200,334.149 386.885,334.451 386.500 C 334.951 385.863,334.936 385.850,334.286 386.360 C 333.603 386.896,333.577 386.250,333.686 371.460 C 333.749 362.957,333.774 356.000,333.743 356.000 C 333.711 356.000,333.576 356.285,333.443 356.633 M77.159 357.478 C 77.601 358.349,78.342 359.009,78.575 358.740 C 78.641 358.663,78.250 358.150,77.705 357.600 C 76.799 356.686,76.752 356.676,77.159 357.478 M118.892 381.276 C 118.841 394.848,118.935 406.036,119.100 406.138 C 119.372 406.307,119.368 388.151,119.091 365.400 C 119.032 360.560,118.943 367.704,118.892 381.276 M247.600 357.464 C 247.600 357.682,248.095 358.297,248.700 358.830 L 249.800 359.800 248.800 358.600 C 248.250 357.940,247.755 357.325,247.700 357.233 C 247.645 357.142,247.600 357.245,247.600 357.464 M122.800 360.600 C 123.995 361.810,125.063 362.800,125.173 362.800 C 125.283 362.800,124.395 361.810,123.200 360.600 C 122.005 359.390,120.937 358.400,120.827 358.400 C 120.717 358.400,121.605 359.390,122.800 360.600 M336.976 360.551 C 338.033 361.788,338.971 362.800,339.061 362.800 C 339.415 362.800,336.554 359.255,335.827 358.793 C 335.403 358.523,335.919 359.315,336.976 360.551 M295.256 360.601 C 295.957 361.372,296.597 361.937,296.677 361.856 C 296.883 361.650,294.692 359.200,294.301 359.200 C 294.125 359.200,294.554 359.831,295.256 360.601 M251.183 361.518 C 251.905 362.464,252.601 363.133,252.728 363.005 C 252.856 362.878,252.265 362.104,251.415 361.287 L 249.870 359.800 251.183 361.518 M40.400 361.500 C 40.400 361.669,40.760 362.032,41.200 362.307 C 41.640 362.582,42.000 362.669,42.000 362.500 C 42.000 362.331,41.640 361.968,41.200 361.693 C 40.760 361.418,40.400 361.331,40.400 361.500 M43.439 362.737 C 43.325 362.922,43.899 363.687,44.716 364.437 L 46.200 365.800 44.822 364.300 L 43.443 362.800 53.022 362.801 L 62.600 362.803 65.400 365.385 C 69.149 368.843,69.449 368.712,65.827 365.200 L 62.939 362.400 53.293 362.400 C 47.988 362.400,43.554 362.551,43.439 362.737 M81.970 363.497 C 81.266 364.293,81.228 364.403,81.831 363.897 C 82.511 363.327,83.464 363.200,87.051 363.200 C 92.525 363.200,92.999 363.518,90.908 365.782 L 89.413 367.400 91.097 365.800 C 94.026 363.017,93.396 362.400,87.623 362.400 C 83.019 362.400,82.923 362.419,81.970 363.497 M94.249 362.720 C 94.141 362.896,94.419 363.269,94.868 363.549 C 95.318 363.831,95.565 363.867,95.418 363.630 C 94.811 362.647,105.234 363.096,106.339 364.100 C 107.341 365.011,107.164 364.434,106.036 363.117 C 105.382 362.353,94.699 361.993,94.249 362.720 M209.600 362.910 C 209.600 363.426,215.190 369.200,215.690 369.200 C 215.839 369.200,214.674 367.946,213.101 366.413 C 211.528 364.880,210.340 363.526,210.461 363.405 C 210.582 363.284,215.056 363.234,220.403 363.293 L 230.125 363.400 227.985 365.800 C 226.038 367.984,226.007 368.047,227.635 366.503 C 228.619 365.570,229.744 364.265,230.134 363.603 L 230.845 362.400 220.223 362.400 C 211.880 362.400,209.600 362.509,209.600 362.910 M297.135 363.074 C 297.447 363.661,297.600 366.791,297.600 372.616 L 297.600 381.285 294.727 384.343 L 291.853 387.400 294.927 384.350 L 298.000 381.301 298.000 372.299 C 298.000 364.391,297.919 363.231,297.335 362.749 C 296.733 362.253,296.714 362.284,297.135 363.074 M129.400 366.000 C 130.928 367.540,132.453 368.786,132.789 368.768 C 133.251 368.745,133.269 368.685,132.863 368.523 C 132.568 368.405,131.148 367.159,129.708 365.754 C 128.268 364.349,126.985 363.200,126.856 363.200 C 126.727 363.200,127.872 364.460,129.400 366.000 M146.983 363.627 C 146.850 363.843,146.889 363.994,147.070 363.963 C 148.018 363.798,148.046 364.103,147.170 365.068 L 146.200 366.136 147.287 365.368 C 147.886 364.946,148.381 364.394,148.387 364.143 C 148.404 363.536,147.292 363.128,146.983 363.627 M257.000 365.585 C 258.320 366.892,259.670 368.070,260.000 368.202 C 260.330 368.334,259.435 367.262,258.012 365.821 C 256.588 364.379,255.238 363.202,255.012 363.204 C 254.785 363.206,255.680 364.277,257.000 365.585 M274.175 364.500 L 273.000 365.800 274.398 364.600 C 275.167 363.940,275.872 363.355,275.965 363.300 C 276.057 363.245,275.957 363.200,275.742 363.200 C 275.526 363.200,274.821 363.785,274.175 364.500 M339.372 372.200 C 339.372 377.260,339.429 379.275,339.499 376.677 C 339.569 374.080,339.568 369.940,339.498 367.477 C 339.428 365.015,339.371 367.140,339.372 372.200 M341.602 363.345 C 341.601 363.534,342.802 364.929,344.272 366.445 L 346.943 369.200 356.005 369.200 C 366.296 369.200,366.092 369.250,363.861 367.270 C 361.124 364.839,360.401 364.447,362.782 366.684 L 365.000 368.769 355.939 368.784 L 346.878 368.800 344.241 365.900 C 342.791 364.305,341.604 363.155,341.602 363.345 M231.116 371.890 L 231.233 380.181 229.916 378.990 L 228.600 377.800 229.775 379.100 C 231.926 381.481,232.000 381.245,232.000 372.000 C 232.000 365.547,231.884 363.600,231.500 363.600 C 231.112 363.599,231.026 365.462,231.116 371.890 M317.600 363.763 C 317.600 363.856,318.320 364.503,319.200 365.200 C 320.901 366.548,321.252 366.611,320.096 365.361 C 319.384 364.592,317.600 363.450,317.600 363.763 M275.549 364.700 C 275.051 365.334,275.066 365.349,275.700 364.851 C 276.361 364.332,276.400 364.714,276.400 371.751 C 276.400 375.848,276.316 379.200,276.214 379.200 C 276.112 379.200,275.392 378.641,274.614 377.959 C 273.836 377.276,273.200 376.855,273.200 377.023 C 273.200 377.510,275.580 379.502,276.428 379.723 C 277.172 379.918,277.200 379.632,277.200 371.963 C 277.200 363.679,277.009 362.838,275.549 364.700 M143.883 366.658 C 142.609 367.891,141.664 368.997,141.783 369.117 C 141.902 369.236,142.045 369.254,142.100 369.157 C 142.155 369.061,143.184 367.951,144.386 366.691 C 147.178 363.765,146.892 363.747,143.883 366.658 M301.222 364.981 C 301.540 365.410,302.509 366.535,303.376 367.481 L 304.951 369.200 314.276 369.200 C 319.404 369.200,323.600 369.065,323.600 368.900 C 323.601 368.735,319.518 368.652,314.527 368.715 L 305.453 368.830 303.049 366.515 C 301.727 365.242,300.905 364.551,301.222 364.981 M273.570 366.268 L 272.600 367.336 273.687 366.568 C 274.286 366.146,274.781 365.665,274.787 365.500 C 274.808 365.007,274.589 365.146,273.570 366.268 M78.975 366.900 L 77.800 368.200 79.100 367.025 C 80.312 365.930,80.584 365.600,80.275 365.600 C 80.206 365.600,79.621 366.185,78.975 366.900 M97.433 366.405 C 99.347 368.689,99.958 369.279,100.270 369.143 C 100.452 369.064,99.700 368.192,98.600 367.205 C 97.500 366.218,96.975 365.858,97.433 366.405 M227.978 367.100 L 226.600 368.600 228.100 367.222 C 229.496 365.938,229.784 365.600,229.478 365.600 C 229.412 365.600,228.737 366.275,227.978 367.100 M87.800 367.600 L 86.238 369.200 81.852 369.200 C 79.440 369.200,77.576 369.091,77.709 368.957 C 78.087 368.579,77.064 367.677,76.502 367.893 C 76.226 367.999,76.000 368.241,76.000 368.430 C 76.000 368.620,76.270 368.671,76.600 368.545 C 76.980 368.399,77.200 368.550,77.200 368.957 C 77.200 369.510,77.835 369.600,81.717 369.600 L 86.233 369.600 88.000 367.800 C 88.972 366.810,89.676 366.000,89.564 366.000 C 89.453 366.000,88.659 366.720,87.800 367.600 M109.739 367.932 C 110.103 368.335,110.281 368.785,110.134 368.932 C 109.987 369.080,110.047 369.200,110.267 369.200 C 111.045 369.200,111.126 368.723,110.478 367.966 C 110.117 367.545,109.654 367.200,109.449 367.200 C 109.244 367.200,109.374 367.530,109.739 367.932 M271.075 368.322 C 269.612 369.849,269.492 373.832,270.872 375.038 L 271.745 375.800 271.072 374.811 C 269.946 373.154,270.161 369.694,271.475 368.322 C 272.066 367.705,272.460 367.200,272.350 367.200 C 272.240 367.200,271.666 367.705,271.075 368.322 M53.900 368.699 C 56.595 368.768,61.005 368.768,63.700 368.699 C 66.395 368.630,64.190 368.573,58.800 368.573 C 53.410 368.573,51.205 368.630,53.900 368.699 M262.900 368.696 C 264.165 368.775,266.235 368.775,267.500 368.696 C 268.765 368.616,267.730 368.551,265.200 368.551 C 262.670 368.551,261.635 368.616,262.900 368.696 M135.513 369.095 C 136.676 369.176,138.476 369.176,139.513 369.093 C 140.551 369.011,139.600 368.945,137.400 368.946 C 135.200 368.947,134.351 369.014,135.513 369.095 M87.067 369.867 C 86.667 370.267,86.745 405.919,87.147 406.167 C 87.337 406.285,87.815 406.025,88.209 405.591 C 88.602 405.156,88.781 404.800,88.606 404.800 C 88.431 404.800,88.047 405.115,87.752 405.500 C 87.302 406.088,87.230 403.268,87.308 387.900 C 87.359 377.835,87.385 369.600,87.367 369.600 C 87.348 369.600,87.213 369.720,87.067 369.867 M132.800 372.013 L 132.800 374.426 137.300 374.313 L 141.800 374.200 141.920 371.900 L 142.040 369.600 137.420 369.600 L 132.800 369.600 132.800 372.013 M357.200 369.989 L 347.800 370.200 347.765 372.302 L 347.730 374.405 347.886 372.402 L 348.042 370.400 357.421 370.400 C 363.407 370.400,366.800 370.255,366.800 370.000 C 366.800 369.780,366.755 369.640,366.700 369.689 C 366.645 369.738,362.370 369.873,357.200 369.989 M141.600 371.792 C 141.600 373.957,141.283 374.092,136.599 373.919 L 133.400 373.800 133.278 371.900 L 133.156 370.000 137.378 370.000 L 141.600 370.000 141.600 371.792 M218.500 370.294 C 219.545 370.376,221.255 370.376,222.300 370.294 C 223.345 370.212,222.490 370.144,220.400 370.144 C 218.310 370.144,217.455 370.212,218.500 370.294 M86.000 388.720 L 86.200 407.000 86.304 389.024 C 86.361 379.137,86.271 370.911,86.104 370.744 C 85.937 370.577,85.890 378.666,86.000 388.720 M224.339 372.400 C 224.262 373.500,224.335 374.400,224.500 374.400 C 224.665 374.400,224.800 373.500,224.800 372.400 C 224.800 369.819,224.517 369.820,224.339 372.400 M260.800 374.100 C 260.800 374.265,262.690 374.400,265.000 374.400 C 267.310 374.400,269.200 374.265,269.200 374.100 C 269.200 373.935,267.310 373.800,265.000 373.800 C 262.690 373.800,260.800 373.935,260.800 374.100 M324.704 391.100 L 324.600 407.800 307.600 408.007 L 290.600 408.213 307.620 408.307 C 320.431 408.377,324.759 408.281,325.120 407.920 C 325.737 407.303,325.820 374.400,325.204 374.400 C 324.952 374.400,324.771 380.427,324.704 391.100 M145.378 377.489 C 146.906 379.077,148.241 380.292,148.345 380.189 C 148.448 380.085,148.454 379.955,148.356 379.900 C 148.259 379.845,146.924 378.630,145.390 377.200 L 142.600 374.600 145.378 377.489 M149.645 381.200 C 149.625 381.847,150.932 383.600,151.434 383.600 C 151.602 383.600,151.371 383.195,150.921 382.700 C 150.470 382.205,150.003 381.530,149.882 381.200 C 149.688 380.667,149.661 380.667,149.645 381.200 M255.859 382.305 C 255.660 382.626,258.213 385.600,258.687 385.600 C 258.838 385.600,258.259 384.880,257.400 384.000 L 255.838 382.400 265.394 382.400 L 274.950 382.400 273.775 383.700 L 272.600 385.000 273.900 383.825 C 274.615 383.179,275.200 382.504,275.200 382.325 C 275.200 381.913,256.113 381.893,255.859 382.305 M316.019 382.920 C 315.517 383.727,315.527 383.754,316.145 383.243 C 317.202 382.370,317.303 382.959,316.316 384.239 C 315.706 385.030,315.648 385.219,316.133 384.833 C 317.265 383.930,317.657 382.945,317.075 382.462 C 316.700 382.151,316.423 382.271,316.019 382.920 M337.005 385.195 C 333.329 388.899,333.209 388.840,344.028 388.700 L 353.000 388.584 343.900 388.492 C 338.895 388.441,334.800 388.270,334.800 388.110 C 334.800 387.951,336.010 386.601,337.489 385.110 C 338.968 383.620,340.089 382.400,339.979 382.400 C 339.869 382.400,338.530 383.658,337.005 385.195 M127.600 383.073 C 127.601 383.420,130.255 386.061,131.100 386.555 C 132.051 387.111,131.592 386.525,129.600 384.639 C 128.500 383.597,127.600 382.893,127.600 383.073 M146.770 383.900 L 145.800 385.000 147.000 384.000 C 147.660 383.450,148.275 382.955,148.367 382.900 C 148.458 382.845,148.355 382.800,148.136 382.800 C 147.918 382.800,147.303 383.295,146.770 383.900 M275.783 383.227 C 275.585 383.547,275.641 383.622,275.938 383.438 C 276.281 383.226,276.424 385.452,276.492 392.076 L 276.584 401.000 276.700 392.228 C 276.807 384.099,276.586 381.928,275.783 383.227 M358.227 383.941 L 357.455 385.000 358.327 384.238 L 359.200 383.476 359.200 391.162 C 359.200 396.869,359.081 398.774,358.738 398.562 C 358.450 398.384,358.385 398.452,358.566 398.745 C 359.350 400.013,359.600 398.140,359.600 391.000 C 359.600 382.856,359.478 382.228,358.227 383.941 M213.040 385.350 C 214.118 386.532,215.270 387.622,215.600 387.771 C 215.930 387.920,215.126 386.953,213.813 385.621 C 210.854 382.621,210.409 382.465,213.040 385.350 M143.578 385.499 C 142.387 386.795,142.365 386.850,143.422 385.899 C 145.002 384.478,145.623 384.479,144.370 385.900 L 143.400 387.000 144.471 386.057 C 145.060 385.539,145.446 384.864,145.328 384.557 C 145.051 383.835,145.166 383.773,143.578 385.499 M151.600 384.169 C 151.600 384.432,154.082 386.851,154.216 386.718 C 154.364 386.569,152.086 384.000,151.806 384.000 C 151.693 384.000,151.600 384.076,151.600 384.169 M271.868 386.731 L 269.984 388.643 270.092 397.622 L 270.200 406.600 272.017 404.800 C 273.016 403.810,273.188 403.585,272.400 404.300 C 271.611 405.015,270.839 405.600,270.683 405.600 C 270.527 405.600,270.400 401.753,270.400 397.051 L 270.400 388.502 272.230 386.815 C 273.237 385.887,273.991 385.058,273.906 384.973 C 273.821 384.888,272.904 385.679,271.868 386.731 M356.559 386.100 C 354.807 388.121,354.287 388.800,354.490 388.800 C 354.607 388.800,355.367 387.990,356.179 387.000 C 357.681 385.166,357.979 384.463,356.559 386.100 M258.800 386.236 C 258.800 388.313,268.687 388.877,270.430 386.900 L 271.400 385.800 270.374 386.700 C 268.903 387.990,261.264 388.064,260.000 386.800 C 259.190 385.990,258.800 385.807,258.800 386.236 M136.600 387.200 L 131.400 387.437 136.476 387.518 C 139.521 387.567,141.652 387.440,141.800 387.200 C 141.936 386.980,141.992 386.837,141.924 386.882 C 141.856 386.927,139.460 387.070,136.600 387.200 M236.558 387.531 C 236.764 387.866,234.104 388.017,226.519 388.100 L 216.200 388.214 226.700 388.307 C 236.492 388.394,238.155 388.237,236.738 387.362 C 236.455 387.186,236.385 387.252,236.558 387.531 M292.814 387.784 C 292.043 388.712,293.383 388.838,302.600 388.705 L 311.000 388.583 302.057 388.491 C 294.297 388.412,293.145 388.321,293.345 387.800 C 293.636 387.041,293.435 387.035,292.814 387.784 M142.077 390.267 C 141.995 392.898,142.235 394.000,142.892 394.000 C 143.156 394.000,143.148 393.819,142.870 393.485 C 142.635 393.201,142.378 391.806,142.298 390.385 L 142.154 387.800 142.077 390.267 M134.915 388.696 C 136.188 388.776,138.168 388.775,139.315 388.694 C 140.462 388.614,139.420 388.549,137.000 388.550 C 134.580 388.551,133.642 388.616,134.915 388.696 M332.661 389.300 C 332.763 389.465,337.337 389.600,342.824 389.600 L 352.800 389.600 352.800 391.400 C 352.800 392.390,352.980 393.200,353.200 393.200 C 353.533 393.200,353.812 389.770,353.500 389.520 C 353.188 389.270,332.507 389.052,332.661 389.300 M300.878 389.496 L 311.157 389.613 311.319 391.507 L 311.482 393.400 311.441 391.400 L 311.400 389.400 301.000 389.389 L 290.600 389.379 300.878 389.496 M354.086 391.200 C 354.027 393.290,355.487 396.000,356.673 396.000 C 356.829 396.000,356.392 395.415,355.701 394.700 C 354.665 393.628,354.419 393.014,354.296 391.200 L 354.148 389.000 354.086 391.200 M70.490 400.496 L 70.400 407.992 52.100 408.100 L 33.800 408.208 52.113 408.304 C 66.719 408.381,70.465 408.296,70.622 407.887 C 70.731 407.604,70.765 404.139,70.700 400.187 L 70.580 393.000 70.490 400.496 M332.000 400.320 C 332.000 405.324,332.143 407.583,332.480 407.920 C 333.023 408.463,366.205 408.639,366.538 408.100 C 366.640 407.935,359.046 407.800,349.662 407.800 L 332.600 407.800 332.600 400.500 C 332.600 396.484,332.465 393.199,332.300 393.200 C 332.135 393.200,332.000 396.404,332.000 400.320 M290.477 400.700 C 290.555 407.844,290.701 407.001,290.895 398.299 C 290.953 395.714,290.865 393.599,290.700 393.599 C 290.535 393.600,290.435 396.795,290.477 400.700 M291.600 394.525 C 291.600 394.594,292.185 395.179,292.900 395.825 L 294.200 397.000 293.025 395.700 C 291.930 394.488,291.600 394.216,291.600 394.525 M333.274 400.276 C 333.233 403.398,333.335 406.037,333.500 406.139 C 333.665 406.242,333.752 404.588,333.694 402.463 C 333.498 395.335,333.349 394.557,333.274 400.276 M314.400 395.742 C 314.400 395.846,315.140 396.712,316.045 397.666 L 317.691 399.400 316.416 397.706 C 315.216 396.109,314.400 395.315,314.400 395.742 M295.753 398.801 C 297.549 400.788,297.548 400.792,295.600 402.552 C 294.720 403.347,294.000 404.126,294.000 404.282 C 294.000 404.439,294.810 403.772,295.800 402.800 C 297.963 400.677,297.971 400.598,296.171 398.700 C 294.268 396.692,293.923 396.775,295.753 398.801 M337.400 398.800 C 338.259 399.680,339.052 400.400,339.162 400.400 C 339.272 400.400,338.659 399.680,337.800 398.800 C 336.941 397.920,336.148 397.200,336.038 397.200 C 335.928 397.200,336.541 397.920,337.400 398.800 M205.787 402.500 L 203.400 405.000 205.900 402.613 C 207.275 401.299,208.400 400.174,208.400 400.113 C 208.400 399.817,208.005 400.178,205.787 402.500 M91.557 401.513 L 90.600 402.600 91.700 401.630 C 92.305 401.097,92.800 400.872,92.800 401.130 C 92.800 401.389,92.997 401.600,93.237 401.600 C 93.477 401.600,94.720 402.680,96.000 404.000 C 97.280 405.320,98.472 406.400,98.650 406.400 C 99.058 406.400,94.952 402.193,93.557 401.182 C 92.516 400.428,92.513 400.429,91.557 401.513 M122.585 402.500 L 120.600 404.600 122.700 402.615 C 123.855 401.523,124.800 400.578,124.800 400.515 C 124.800 400.217,124.429 400.549,122.585 402.500 M39.578 402.300 L 38.200 403.800 39.700 402.422 C 40.525 401.663,41.200 400.988,41.200 400.922 C 41.200 400.616,40.862 400.904,39.578 402.300 M64.000 401.110 C 64.000 401.303,64.450 401.883,65.000 402.400 C 65.550 402.917,66.000 403.244,66.000 403.128 C 66.000 403.012,65.550 402.431,65.000 401.838 C 64.450 401.244,64.000 400.917,64.000 401.110 M295.610 403.748 L 293.021 406.600 295.820 403.900 L 298.620 401.200 308.200 401.200 L 317.780 401.200 320.567 403.900 C 322.099 405.385,323.094 406.253,322.777 405.828 C 322.460 405.404,321.210 404.100,320.000 402.931 L 317.800 400.804 308.000 400.851 L 298.200 400.897 295.610 403.748 M336.587 403.300 L 334.200 405.800 336.700 403.413 C 338.075 402.099,339.200 400.974,339.200 400.913 C 339.200 400.617,338.805 400.978,336.587 403.300 M345.100 401.099 C 347.795 401.168,352.205 401.168,354.900 401.099 C 357.595 401.030,355.390 400.973,350.000 400.973 C 344.610 400.973,342.405 401.030,345.100 401.099 M151.453 403.949 L 154.305 406.800 137.278 406.800 L 120.250 406.800 121.425 405.500 L 122.600 404.200 121.300 405.375 C 120.585 406.021,120.000 406.696,120.000 406.875 C 120.000 407.302,154.292 407.299,154.555 406.872 C 154.667 406.692,153.372 405.319,151.679 403.822 L 148.600 401.099 151.453 403.949 M205.988 403.900 L 203.400 406.600 206.096 404.015 L 208.793 401.430 210.396 402.996 C 211.278 403.858,212.000 404.438,212.000 404.287 C 212.000 403.981,209.125 401.228,208.788 401.211 C 208.672 401.205,207.412 402.415,205.988 403.900 M250.100 404.015 C 248.505 405.549,247.200 406.894,247.200 407.002 C 247.200 407.111,249.990 407.200,253.400 407.200 C 256.810 407.200,259.600 407.065,259.601 406.900 C 259.601 406.735,256.913 406.654,253.628 406.720 L 247.654 406.840 250.527 404.026 C 252.107 402.479,253.310 401.216,253.200 401.219 C 253.090 401.223,251.695 402.481,250.100 404.015 M275.762 402.500 C 275.001 403.399,275.001 403.399,275.831 402.700 C 276.955 401.754,277.017 401.771,279.100 403.605 C 280.103 404.488,281.007 405.126,281.109 405.024 C 281.348 404.786,280.172 403.600,279.698 403.600 C 279.501 403.600,278.917 403.150,278.400 402.600 C 277.241 401.367,276.738 401.348,275.762 402.500 M39.466 403.512 C 38.610 404.366,38.303 404.483,38.038 404.057 C 37.852 403.759,37.606 403.669,37.492 403.857 C 37.378 404.046,37.501 404.400,37.767 404.645 C 38.224 405.067,41.153 403.020,40.717 402.584 C 40.629 402.496,40.067 402.914,39.466 403.512 M254.800 402.598 C 254.800 402.889,257.504 405.290,258.353 405.753 C 259.203 406.217,256.410 403.304,255.500 402.777 C 255.115 402.554,254.800 402.474,254.800 402.598 M89.978 404.700 L 88.600 406.200 90.100 404.822 C 91.496 403.538,91.784 403.200,91.478 403.200 C 91.412 403.200,90.737 403.875,89.978 404.700 M247.694 404.812 C 246.975 405.465,246.537 406.000,246.719 406.000 C 246.901 406.000,247.568 405.460,248.200 404.800 C 249.670 403.265,249.386 403.272,247.694 404.812 M335.475 405.522 C 334.884 406.139,334.400 406.769,334.400 406.922 C 334.400 407.300,365.105 407.278,365.338 406.900 C 365.440 406.735,358.573 406.649,350.078 406.709 L 334.632 406.819 335.791 405.609 C 336.428 404.944,336.860 404.400,336.750 404.400 C 336.640 404.400,336.066 404.905,335.475 405.522 M36.662 405.931 C 36.298 406.334,36.000 406.784,36.000 406.931 C 36.000 407.079,43.515 407.157,52.700 407.105 L 69.400 407.009 52.842 406.900 C 36.344 406.791,36.287 406.788,37.004 405.996 C 37.400 405.558,37.634 405.200,37.524 405.200 C 37.414 405.200,37.026 405.529,36.662 405.931 M213.600 405.506 C 213.600 405.752,213.825 406.098,214.100 406.276 C 214.375 406.454,211.990 406.698,208.800 406.817 L 203.000 407.034 208.876 407.117 C 215.043 407.204,215.566 407.081,214.349 405.830 C 213.937 405.407,213.600 405.261,213.600 405.506 M88.351 406.912 C 88.524 407.084,90.990 407.174,93.832 407.111 L 99.000 406.997 93.519 406.798 C 90.504 406.689,88.179 406.741,88.351 406.912 M271.200 406.900 C 271.200 407.065,273.799 407.200,276.976 407.200 C 280.153 407.200,282.836 407.065,282.938 406.900 C 283.040 406.735,280.441 406.600,277.162 406.600 C 273.883 406.600,271.200 406.735,271.200 406.900 M300.274 407.099 C 304.494 407.164,311.514 407.164,315.874 407.100 C 320.233 407.035,316.780 406.982,308.200 406.982 C 299.620 406.982,296.053 407.035,300.274 407.099 M208.600 408.000 L 201.000 408.227 208.476 408.313 C 213.125 408.367,216.046 408.249,216.200 408.000 C 216.336 407.780,216.392 407.639,216.324 407.687 C 216.256 407.734,212.780 407.875,208.600 408.000 " stroke="none" fill="#9e9e9e" fill-rule="evenodd"></path></g></svg>